<?xml version="1.1" encoding="windows-1252"?>
<svg xmlns="http://www.w3.org/2000/svg"
    xmlns:latexdraw="http://latexdraw.sourceforge.net/namespaces/latexdraw"
    version="1.1" baseProfile="full">
    <g>
        <g latexdraw:type="akinPoints" id="id1064396529"
            latexdraw:pathType="CURVES" latexdraw:interval="5" latexdraw:points="480.0 440.0 500.0 360.0 520.0 380.0 ">
            <path d="M 480.0 440.0 " stroke-width="2.0" stroke="black"
                fill="none" latexdraw:rotationAngle="0.0"/>
        </g>
        <g latexdraw:type="circle" id="id2091950235">
            <circle cx="139.33333333333334" cy="202.33333333333334"
                r="97.66666666666666" latexdraw:borderPos="outer"
                stroke-width="2.0" stroke="black" fill="none"/>
        </g>
        <g latexdraw:type="akinPoints" id="id1211795553"
            latexdraw:pathType="CURVES" latexdraw:interval="1" latexdraw:points="82.0 242.0 87.55555555555554 204.5 93.11111111111097 179.5 98.66666666666674 167.0 104.22222222222217 192.0 109.77777777777783 204.5 115.33333333333326 229.5 120.88888888888886 242.0 126.44444444444446 229.5 132.0 217.0 137.55555555555566 229.5 143.11111111111114 254.5 148.66666666666663 267.0 154.22222222222217 254.5 159.77777777777794 192.0 165.33333333333337 167.0 170.8888888888888 229.5 176.44444444444423 267.0 182.0 229.5 ">
            <path
                d="M 82.0 242.0 L 84.77777777777777 223.25 C 86.16666666666666 213.875 88.9444444444444 198.25 90.33333333333326 192.0 C 91.72222222222211 185.75 94.49999999999991 176.375 95.88888888888886 173.25 C 97.2777777777778 170.125 100.0555555555556 173.25 101.44444444444446 179.5 C 102.83333333333331 185.75 105.61111111111109 195.125 107.0 198.25 C 108.38888888888891 201.375 111.16666666666669 210.75 112.55555555555554 217.0 C 113.9444444444444 223.25 116.72222222222216 232.625 118.11111111111106 235.75 C 119.49999999999996 238.875 122.27777777777776 238.875 123.66666666666666 235.75 C 125.05555555555556 232.625 127.83333333333334 226.375 129.22222222222223 223.25 C 130.61111111111111 220.125 133.3888888888889 220.125 134.77777777777783 223.25 C 136.16666666666674 226.375 138.9444444444445 235.75 140.3333333333334 242.0 C 141.72222222222229 248.25 144.5 257.625 145.88888888888889 260.75 C 147.27777777777777 263.875 150.05555555555551 263.875 151.4444444444444 260.75 C 152.8333333333333 257.625 155.61111111111111 238.875 157.00000000000006 223.25 C 158.388888888889 207.625 161.1666666666668 185.75 162.55555555555566 179.5 C 163.9444444444445 173.25 166.72222222222223 182.625 168.1111111111111 198.25 C 169.49999999999994 213.875 172.27777777777766 238.875 173.66666666666652 248.25 C 175.05555555555537 257.625 177.83333333333317 257.625 179.22222222222211 248.25 "
                stroke-width="2.0" stroke="black" fill="none" latexdraw:rotationAngle="0.0"/>
        </g>
        <g latexdraw:type="akinPoints" id="id1739967154"
            latexdraw:pathType="CURVES" latexdraw:interval="1" latexdraw:points="82.0 177.0 85.57142857142844 208.25 89.14285714285711 214.5 92.71428571428578 208.25 96.28571428571416 152.0 99.857142857143 127.0 103.42857142857139 139.5 107.0 164.5 110.57142857142861 195.75 114.14285714285688 208.25 117.71428571428578 220.75 121.28571428571422 227.0 124.85714285714312 220.75 128.42857142857133 208.25 132.0 133.25 135.57142857142867 127.0 139.14285714285688 133.25 142.71428571428578 158.25 146.28571428571422 208.25 149.85714285714312 227.0 157.0 220.75 160.57142857142867 133.25 164.14285714285688 127.0 167.71428571428578 133.25 171.28571428571422 139.5 174.85714285714312 170.75 178.42857142857133 214.5 182.0 227.0 ">
            <path
                d="M 82.0 177.0 L 83.78571428571422 192.625 C 84.67857142857133 200.4375 86.46428571428561 209.8125 87.35714285714278 211.375 C 88.24999999999994 212.9375 90.03571428571428 212.9375 90.92857142857144 211.375 C 91.82142857142861 209.8125 93.60714285714288 194.1875 94.49999999999997 180.125 C 95.39285714285707 166.0625 97.17857142857137 145.75 98.07142857142858 139.5 C 98.9642857142858 133.25 100.7500000000001 130.125 101.6428571428572 133.25 C 102.53571428571429 136.375 104.32142857142854 145.75 105.2142857142857 152.0 C 106.10714285714285 158.25 107.89285714285715 172.3125 108.7857142857143 180.125 C 109.67857142857146 187.9375 111.46428571428568 198.875 112.35714285714275 202.0 C 113.24999999999982 205.125 115.0357142857141 211.375 115.92857142857133 214.5 C 116.82142857142856 217.625 118.60714285714289 222.3125 119.5 223.875 C 120.39285714285711 225.4375 122.17857142857144 225.4375 123.07142857142867 223.875 C 123.9642857142859 222.3125 125.75000000000017 217.625 126.64285714285722 214.5 C 127.53571428571428 211.375 129.3214285714285 189.5 130.21428571428567 170.75 C 131.10714285714283 152.0 132.89285714285717 131.6875 133.78571428571433 130.125 C 134.6785714285715 128.5625 136.46428571428572 128.5625 137.35714285714278 130.125 C 138.24999999999983 131.6875 140.0357142857141 139.5 140.92857142857133 145.75 C 141.82142857142856 152.0 143.6071428571429 170.75 144.5 183.25 C 145.3928571428571 195.75 147.17857142857144 212.9375 148.07142857142867 217.625 C 148.9642857142859 222.3125 151.64285714285734 225.4375 153.42857142857156 223.875 C 155.21428571428578 222.3125 157.89285714285717 198.875 158.78571428571433 177.0 C 159.6785714285715 155.125 161.46428571428572 131.6875 162.35714285714278 130.125 C 163.24999999999983 128.5625 165.0357142857141 128.5625 165.92857142857133 130.125 C 166.82142857142856 131.6875 168.6071428571429 134.8125 169.5 136.375 C 170.3928571428571 137.9375 172.17857142857144 147.3125 173.07142857142867 155.125 C 173.9642857142859 162.9375 175.75000000000017 181.6875 176.64285714285722 192.625 C 177.53571428571428 203.5625 179.3214285714285 217.625 180.21428571428567 220.75 "
                stroke-width="2.0" stroke="black" fill="none" latexdraw:rotationAngle="0.0"/>
        </g>
        <g latexdraw:type="dot" id="id1152009197" latexdraw:size="9.0"
            latexdraw:dotShape="*" latexdraw:position="182.0 218.0">
            <path
                d="M 186.15384615384616 218.0 C 186.15384615384616 220.29410588391252 184.29410588391252 222.15384615384616 182.0 222.15384615384616 C 179.70589411608748 222.15384615384616 177.84615384615384 220.29410588391252 177.84615384615384 218.0 C 177.84615384615384 215.70589411608748 179.70589411608748 213.84615384615384 182.0 213.84615384615384 C 184.29410588391252 213.84615384615384 186.15384615384616 215.70589411608748 186.15384615384616 218.0 z "
                fill="red" stroke-linecap="square"
                stroke-linejoin="butt" stroke-width="0.5625"
                stroke-miterlimit="10.0" stroke-dashoffset="0.0" stroke="red"/>
        </g>
        <g latexdraw:type="dot" id="id1325931705" latexdraw:size="9.0"
            latexdraw:dotShape="*" latexdraw:position="182.0 247.0">
            <path
                d="M 186.15384615384616 247.0 C 186.15384615384616 249.29410588391252 184.29410588391252 251.15384615384616 182.0 251.15384615384616 C 179.70589411608748 251.15384615384616 177.84615384615384 249.29410588391252 177.84615384615384 247.0 C 177.84615384615384 244.70589411608748 179.70589411608748 242.84615384615384 182.0 242.84615384615384 C 184.29410588391252 242.84615384615384 186.15384615384616 244.70589411608748 186.15384615384616 247.0 z "
                fill="red" stroke-linecap="square"
                stroke-linejoin="butt" stroke-width="0.5625"
                stroke-miterlimit="10.0" stroke-dashoffset="0.0" stroke="red"/>
        </g>
        <g latexdraw:type="rectangle" id="id374287559">
            <rect x="175.0" y="188.0" width="13.0" height="86.0"
                latexdraw:borderPos="outer" stroke-width="2.0"
                stroke="black" fill="none" stroke-dasharray="8.819444444444445, 5.291666666666667"/>
        </g>
        <g latexdraw:type="text" id="id240213302" fill="black" latexdraw:position="bl">
            <text x="94.0" y="326.0">INPUT: $\mathbf{x}_i$</text>
        </g>
        <g latexdraw:type="joinedLines" id="id214639854">
            <polyline points="239.0,199.0 341.0,199.0 "
                stroke-width="2.0" stroke="black"
                stroke-dasharray="8.819444444444445, 5.291666666666667"
                latexdraw:rotationAngle="0.0" marker-end="url(#arrow1-214639854)"/>
        </g>
        <g latexdraw:type="rectangle" id="id2110211768">
            <rect x="341.0" y="77.0" width="400.0" height="240.0"
                latexdraw:borderPos="outer" stroke-width="2.0"
                stroke="black" fill="none" stroke-dasharray="8.819444444444445, 5.291666666666667"/>
        </g>
        <g latexdraw:type="text" id="id304411762" fill="black" latexdraw:position="bl">
            <text x="475.0" y="227.0">\begin{tabular}{c}
OUTLIER \\
DETECTION \\
METHOD
\end{tabular}</text>
        </g>
        <g latexdraw:type="joinedLines" id="id1427214856">
            <polyline points="744.0,198.0 848.0,198.0 "
                stroke-width="2.0" stroke="black"
                stroke-dasharray="8.819444444444445, 5.291666666666667"
                latexdraw:rotationAngle="0.0" marker-end="url(#arrow1-1427214856)"/>
        </g>
        <g latexdraw:type="circle" id="id1293026551">
            <circle cx="948.3333333333334" cy="201.33333333333337"
                r="97.66666666666663" latexdraw:borderPos="outer"
                stroke-width="2.0" stroke="black" fill="none"/>
        </g>
        <g latexdraw:type="text" id="id1298741550" fill="black" latexdraw:position="bl">
            <text x="900.0" y="326.0">OUTPUT: $O_i$</text>
        </g>
        <g latexdraw:type="text" id="id1873579885" fill="black" latexdraw:position="bl">
            <text x="903.0" y="230.0">\begin{tabular}{c}
$O_i \in \{0,1\}$ \\
or\\
$O_i \in [0,1]$
\end{tabular}</text>
        </g>
        <g latexdraw:type="text" id="id260066396" fill="black" latexdraw:position="bl">
            <text x="193.0" y="236.0">$\mathbf{x}_i$</text>
        </g>
    </g>
    <defs>
        <marker overflow="visible" orient="auto" id="arrow1-214639854">
            <path
                d="M 0.0 0.0 L -7.126750000000001 2.4575000000000005 L -7.126750000000001 0.0 L -7.126750000000001 -2.4575000000000005 z "
                latexdraw:arrSizeNum="2.0900000000000003" fill="black"/>
        </marker>
        <marker overflow="visible" orient="auto" id="arrow1-1427214856">
            <path
                d="M 0.0 0.0 L -7.126750000000001 2.4575000000000005 L -7.126750000000001 0.0 L -7.126750000000001 -2.4575000000000005 z "
                latexdraw:arrSizeNum="2.0900000000000003" fill="black"/>
        </marker>
    </defs>
    <metadata>
        <latexdraw:metadata>
            <latexdraw:latexIncludes/>
            <latexdraw:displayXScale>true</latexdraw:displayXScale>
            <latexdraw:displayYScale>true</latexdraw:displayYScale>
            <latexdraw:unit>CM</latexdraw:unit>
            <latexdraw:zoom>1.0</latexdraw:zoom>
            <latexdraw:magneticGridStyle>CUSTOMISED</latexdraw:magneticGridStyle>
            <latexdraw:gridGap>20</latexdraw:gridGap>
            <latexdraw:magneticGrid>false</latexdraw:magneticGrid>
            <latexdraw:version>3.3.8</latexdraw:version>
            <latexdraw:size>
                <latexdraw:width>1309</latexdraw:width>
                <latexdraw:height>768</latexdraw:height>
            </latexdraw:size>
            <latexdraw:position>
                <latexdraw:x>64.0</latexdraw:x>
                <latexdraw:y>0.0</latexdraw:y>
            </latexdraw:position>
        </latexdraw:metadata>
    </metadata>
</svg>
