<?xml version="1.1" encoding="windows-1252"?>
<svg xmlns="http://www.w3.org/2000/svg"
    xmlns:latexdraw="http://latexdraw.sourceforge.net/namespaces/latexdraw"
    version="1.1" baseProfile="full">
    <g>
        <g latexdraw:type="akinPoints" id="id1065871323"
            latexdraw:pathType="CURVES" latexdraw:interval="5" latexdraw:points="480.0 440.0 500.0 360.0 520.0 380.0 ">
            <path d="M 480.0 440.0 " stroke-width="2.0" stroke="black"
                fill="none" latexdraw:rotationAngle="0.0"/>
        </g>
        <g latexdraw:type="text" id="id1689075691" fill="black" latexdraw:position="bl">
            <text x="169.90765890103432" y="318.77733613043364">INPUT: $\mathbf{x}_i$</text>
        </g>
        <g latexdraw:type="joinedLines" id="id1679078810">
            <polyline
                points="287.62228110853516,219.51242133156643 380.2565971072099,219.51242133156643 "
                stroke-width="2.0" stroke="black"
                stroke-dasharray="8.819444444444445, 5.291666666666667"
                latexdraw:rotationAngle="0.0" marker-end="url(#arrow1-1679078810)"/>
        </g>
        <g latexdraw:type="rectangle" id="id1340360423">
            <rect x="310.37782930330104" y="119.0"
                width="495.2646571712444" height="224.49987118619083"
                latexdraw:borderPos="outer" stroke-width="2.0"
                stroke="black" fill="none" stroke-dasharray="8.819444444444445, 5.291666666666667"/>
        </g>
        <g latexdraw:type="text" id="id569657425" fill="black" latexdraw:position="bl">
            <text x="439.3142320856796" y="94.1179198410068">\begin{tabular}{c}
RECONSTRUCTION-BASED \\
OUTLIER DETECTION
\end{tabular}</text>
        </g>
        <g latexdraw:type="joinedLines" id="id1288368630">
            <polyline
                points="738.4000220823618,220.63365352765777 842.4585403555224,220.63365352765788 "
                stroke-width="2.0" stroke="black"
                stroke-dasharray="8.819444444444445, 5.291666666666667"
                latexdraw:rotationAngle="0.0" marker-end="url(#arrow1-1288368630)"/>
        </g>
        <g latexdraw:type="circle" id="id1133585381">
            <circle cx="916.0171322365757" cy="224.4517684295759"
                r="72.20508998564696" latexdraw:borderPos="outer"
                stroke-width="2.0" stroke="black" fill="none"/>
        </g>
        <g latexdraw:type="text" id="id1759304293" fill="black" latexdraw:position="bl">
            <text x="865.3562253873577" y="319.89856832652407">OUTPUT: $O_i$</text>
        </g>
        <g latexdraw:type="text" id="id1077340072" fill="black" latexdraw:position="bl">
            <text x="859.1297717061162" y="229.56996616523833">$O_i = \|{\bf x}_i - \hat{{\bf x}}_i\|^2$</text>
        </g>
        <g latexdraw:type="circle" id="id1229513186">
            <circle cx="209.5384233189801" cy="223.9416473445953"
                r="71.2050899856464" latexdraw:borderPos="outer"
                stroke-width="2.0" stroke="black" fill="none"/>
        </g>
        <g latexdraw:type="akinPoints" id="id656757735"
            latexdraw:pathType="CURVES" latexdraw:interval="1" latexdraw:points="167.58141157056411 252.97004500774352 171.64701348417032 225.52723209090206 175.71261539777618 207.23202347967384 179.7782173113825 198.08441917405975 183.84381922498858 216.37962778528754 187.909421138595 225.52723209090206 191.97502305220144 243.82244070212943 196.0406249658074 252.97004500774352 200.1062268794135 243.82244070212943 204.1718287930198 234.67483639651562 208.23743070662636 243.82244070212943 212.3030326202329 262.11764931335756 216.36863453383853 271.2652536189714 220.43423644744416 262.11764931335756 224.49983836105082 216.37962778528754 228.56544027465748 198.08441917405975 232.6310421882638 243.82244070212943 236.69664410186965 271.2652536189714 240.76224601547597 243.82244070212943 ">
            <path
                d="M 167.58141157056411 252.97004500774352 L 169.61421252736721 239.24863854932278 C 170.63061300576877 232.38793532011243 172.66341396257178 220.95342993809498 173.67981444097325 216.37962778528794 C 174.6962149193747 211.8058256324809 176.72901587617775 204.94512240327032 177.74541635457933 202.6582213268668 C 178.7618168329809 200.37132025046327 180.794617789784 202.65822132686668 181.81101826818553 207.23202347967364 C 182.82741874658706 211.8058256324806 184.8602197033902 218.66652886169118 185.8766201817918 220.9534299380948 C 186.8930206601934 223.24033101449845 188.92582161699661 230.1010342437089 189.94222209539822 234.67483639651573 C 190.95862257379983 239.24863854932258 192.99142353060293 246.10934177853295 194.00782400900442 248.39624285493647 C 195.02422448740592 250.68314393134 197.05702544420893 250.68314393134 198.07342592261045 248.39624285493647 C 199.08982640101198 246.10934177853295 201.12262735781508 241.53553962572596 202.13902783621666 239.24863854932252 C 203.15542831461823 236.96173747291908 205.18822927142145 236.96173747291908 206.20462974982308 239.24863854932252 C 207.22103022822472 241.53553962572596 209.253831185028 248.39624285493647 210.27023166342963 252.9700450077435 C 211.28663214183126 257.5438471605505 213.3194330986343 264.404550389761 214.33583357703571 266.6914514661645 C 215.35223405543712 268.97835254256796 217.38503501223994 268.97835254256796 218.40143549064135 266.6914514661645 C 219.41783596904276 264.404550389761 221.45063692584583 250.68314393134006 222.4670374042475 239.24863854932255 C 223.48343788264916 227.81413316730504 225.51623883945248 211.8058256324806 226.53263931785415 207.23202347967364 C 227.5490397962558 202.65822132686668 229.58184075305905 209.51892455607717 230.59824123146063 220.9534299380946 C 231.6146417098622 232.387935320112 233.64744266666526 250.6831439313399 234.66384314506672 257.5438471605504 C 235.6802436234682 264.4045503897609 237.71304458027123 264.4045503897609 238.7294450586728 257.5438471605504 "
                stroke-width="2.0" stroke="black" fill="none" latexdraw:rotationAngle="0.0"/>
        </g>
        <g latexdraw:type="akinPoints" id="id1578129156"
            latexdraw:pathType="CURVES" latexdraw:interval="1" latexdraw:points="167.58141157056411 205.40250261855078 170.19501280073928 228.27151338258585 172.80861403091467 232.84531553539279 175.42221526109006 228.27151338258585 178.03581649126545 187.10729400732276 180.64941772144118 168.81208539609506 183.26301895161623 177.9596897017091 185.87662018179185 196.25489831293726 188.49022141196713 219.1239090769721 191.1038226421423 228.27151338258585 193.71742387231825 237.41911768820006 196.3310251024934 241.99291984100677 198.94462633266903 237.41911768820006 201.55822756284442 228.27151338258585 204.1718287930198 173.38588754890196 206.78543002319543 168.81208539609506 209.39903125337082 173.38588754890196 212.0126324835461 191.6810961601301 214.62623371372172 228.27151338258585 217.239834943897 241.99291984100677 222.467037404248 237.41911768820006 225.08063863442328 173.38588754890196 227.69423986459879 168.81208539609506 230.30784109477418 173.38588754890196 232.92144232494934 177.9596897017091 235.53504355512553 200.82870046574436 238.14864478530046 232.84531553539279 240.76224601547597 241.99291984100677 ">
            <path
                d="M 167.58141157056411 205.40250261855078 L 168.8882121856517 216.83700800056832 C 169.5416124931955 222.5542606915771 170.84841310828313 229.41496392078759 171.50181341582697 230.55841445898932 C 172.15521372337082 231.70186499719105 173.46201433845852 231.70186499719105 174.11541464600236 230.55841445898932 C 174.7688149535462 229.41496392078759 176.0756155686339 217.98045853877008 176.72901587617775 207.6894036949543 C 177.3824161837216 197.39834885113854 178.68921679880938 182.53349185451583 179.34261710635332 177.9596897017089 C 179.99601741389725 173.38588754890196 181.30281802898494 171.09898647249855 181.9562183365287 173.38588754890208 C 182.60961864407247 175.6727886253056 183.91641925916014 182.53349185451611 184.56981956670404 187.10729400732316 C 185.22321987424795 191.6810961601302 186.53002048933567 201.97215100394595 187.1834207968795 207.68940369495468 C 187.8368211044233 213.4066563859634 189.14362171951092 221.41081015337554 189.7970220270547 223.69771122977897 C 190.4504223345985 225.9846123061824 191.75722294968628 230.5584144589894 192.41062325723027 232.84531553539296 C 193.06402356477426 235.1322166117965 194.37082417986204 238.56256822640174 195.02422448740583 239.7060187646034 C 195.67762479494962 240.8494693028051 196.98442541003732 240.8494693028051 197.63782571758122 239.7060187646034 C 198.29122602512513 238.56256822640174 199.59802664021288 235.1322166117965 200.25142694775673 232.84531553539296 C 200.90482725530057 230.5584144589894 202.21162787038827 214.55010692416488 202.86502817793212 200.8287004657439 C 203.51842848547597 187.10729400732293 204.82522910056372 172.24243701070023 205.47862940810762 171.0989864724985 C 206.13202971565153 169.9555359342968 207.43883033073928 169.9555359342968 208.09223063828313 171.0989864724985 C 208.74563094582697 172.24243701070023 210.05243156091464 177.959689701709 210.70583186845846 182.53349185451603 C 211.35923217600228 187.10729400732305 212.66603279109 200.82870046574402 213.3194330986339 209.97630477135797 C 213.9728334061778 219.12390907697193 215.27963402126554 231.70186499719108 215.93303432880936 235.1322166117963 C 216.58643463635318 238.56256822640154 218.54663555898475 240.8494693028051 219.8534361740725 239.7060187646034 C 221.16023678916025 238.56256822640174 223.12043771179182 221.41081015337554 223.77383801933564 205.402502618551 C 224.42723832687946 189.3941950837265 225.73403894196716 172.24243701070023 226.38743924951103 171.0989864724985 C 227.0408395570549 169.9555359342968 228.34764017214263 169.9555359342968 229.00104047968648 171.0989864724985 C 229.65444078723033 172.24243701070023 230.96124140231797 174.52933808710375 231.61464170986176 175.67278862530554 C 232.26804201740555 176.8162391635073 233.5748426324934 183.67694239271793 234.22824294003743 189.39419508372674 C 234.88164324758148 195.11144777473555 236.18844386266926 208.83285423315647 236.841844170213 216.83700800056857 C 237.49524447775673 224.84116176798068 238.80204509284434 235.13221661179628 239.45544540038821 237.41911768819978 "
                stroke-width="2.0" stroke="black" fill="none" latexdraw:rotationAngle="0.0"/>
        </g>
        <g latexdraw:type="dot" id="id1548423628"
            latexdraw:size="6.586275100042072" latexdraw:dotShape="*" latexdraw:position="239.66666666666697 233.0">
            <path
                d="M 242.70648594360947 233.0 C 242.70648594360947 234.678845828897 241.34551249556398 236.0398192769425 239.66666666666697 236.0398192769425 C 237.98782083776996 236.0398192769425 236.62684738972447 234.678845828897 236.62684738972447 233.0 C 236.62684738972447 231.321154171103 237.98782083776996 229.9601807230575 239.66666666666697 229.9601807230575 C 241.34551249556398 229.9601807230575 242.70648594360947 231.321154171103 242.70648594360947 233.0 z "
                fill="red" stroke-linecap="square"
                stroke-linejoin="butt" stroke-width="0.4116421937942505"
                stroke-miterlimit="10.0" stroke-dashoffset="0.0" stroke="red"/>
        </g>
        <g latexdraw:type="dot" id="id522278859"
            latexdraw:size="6.586275100042072" latexdraw:dotShape="*" latexdraw:position="239.66666666666697 257.0">
            <path
                d="M 242.70648594360947 257.0 C 242.70648594360947 258.678845828897 241.34551249556398 260.03981927694247 239.66666666666697 260.03981927694247 C 237.98782083776996 260.03981927694247 236.62684738972447 258.678845828897 236.62684738972447 257.0 C 236.62684738972447 255.321154171103 237.98782083776996 253.9601807230575 239.66666666666697 253.9601807230575 C 241.34551249556398 253.9601807230575 242.70648594360947 255.321154171103 242.70648594360947 257.0 z "
                fill="red" stroke-linecap="square"
                stroke-linejoin="butt" stroke-width="0.4116421937942505"
                stroke-miterlimit="10.0" stroke-dashoffset="0.0" stroke="red"/>
        </g>
        <g latexdraw:type="rectangle" id="id746121416">
            <rect x="235.9077792598831" y="213.72058606304236"
                width="8.977125166736414" height="62.399134311522715"
                latexdraw:borderPos="outer" stroke-width="2.0"
                stroke="black" fill="none" stroke-dasharray="8.819444444444445, 5.291666666666667"/>
        </g>
        <g latexdraw:type="circle" id="id1594562480">
            <circle cx="454.5384233189801" cy="223.9416473445953"
                r="71.2050899856464" latexdraw:borderPos="outer"
                stroke-width="2.0" stroke="black" fill="none"/>
        </g>
        <g latexdraw:type="akinPoints" id="id512076846"
            latexdraw:pathType="CURVES" latexdraw:interval="1" latexdraw:points="412.5814115705641 219.90250261855073 415.1950128007393 226.83401338258582 417.80861403091467 228.22031553539279 420.42221526109006 226.83401338258582 423.03581649126545 214.3572940073227 425.6494177214412 208.81208539609497 428.26301895161623 211.584689701709 430.87662018179185 217.12989831293714 433.4902214119671 224.06140907697204 436.1038226421423 226.83401338258582 438.71742387231825 229.6066176882 441.3310251024934 230.99291984100677 443.94462633266903 229.6066176882 446.5582275628444 226.83401338258582 449.1718287930198 210.1983875489019 451.78543002319543 208.81208539609497 454.3990312533708 210.1983875489019 457.0126324835461 215.74359616013004 459.6262337137217 226.83401338258582 462.239834943897 230.99291984100677 467.467037404248 229.6066176882 470.0806386344233 210.1983875489019 472.6942398645988 208.81208539609497 475.3078410947742 210.1983875489019 477.92144232494934 211.584689701709 480.5350435551255 218.51620046574416 483.14864478530046 228.22031553539279 485.76224601547597 230.99291984100677 ">
            <path
                d="M 412.5814115705641 219.90250261855073 L 413.8882121856517 223.3682580005683 C 414.5416124931955 225.10113569157704 415.8484131082831 227.18058892078756 416.501813415827 227.52716445898932 C 417.1552137233708 227.87373999719105 418.4620143384585 227.87373999719105 419.11541464600236 227.52716445898932 C 419.7688149535462 227.18058892078756 421.0756155686339 223.71483353877005 421.72901587617775 220.59565369495425 C 422.3824161837216 217.47647385113848 423.6892167988094 212.97099185451577 424.3426171063533 211.58468970170884 C 424.9960174138972 210.1983875489019 426.3028180289849 209.5052364724985 426.9562183365287 210.198387548902 C 427.6096186440725 210.8915386253055 428.91641925916014 212.97099185451606 429.56981956670404 214.35729400732308 C 430.22321987424795 215.7435961601301 431.5300204893357 218.86277600394587 432.1834207968795 220.5956536949546 C 432.8368211044233 222.32853138596332 434.1436217195109 224.75456015337548 434.7970220270547 225.44771122977892 C 435.4504223345985 226.14086230618238 436.75722294968625 227.52716445898938 437.41062325723027 228.2203155353929 C 438.0640235647743 228.91346661179645 439.37082417986204 229.9531932264017 440.02422448740583 230.29976876460339 C 440.6776247949496 230.64634430280506 441.9844254100373 230.64634430280506 442.6378257175812 230.29976876460339 C 443.2912260251251 229.9531932264017 444.5980266402129 228.91346661179645 445.2514269477567 228.2203155353929 C 445.9048272553006 227.52716445898938 447.21162787038827 222.67510692416482 447.8650281779321 218.51620046574385 C 448.51842848547597 214.35729400732288 449.8252291005637 209.85181201070017 450.4786294081076 209.50523647249844 C 451.1320297156515 209.1586609342967 452.4388303307393 209.1586609342967 453.0922306382831 209.50523647249844 C 453.745630945827 209.85181201070017 455.05243156091467 211.58468970170895 455.70583186845846 212.97099185451597 C 456.35923217600225 214.357294007323 457.66603279109 218.516200465744 458.3194330986339 221.28880477135795 C 458.9728334061778 224.06140907697187 460.27963402126557 227.87373999719108 460.93303432880936 228.9134666117963 C 461.58643463635315 229.95319322640154 463.54663555898475 230.64634430280506 464.8534361740725 230.29976876460339 C 466.16023678916025 229.9531932264017 468.12043771179185 224.75456015337548 468.77383801933564 219.90250261855095 C 469.42723832687943 215.05044508372643 470.7340389419671 209.85181201070017 471.38743924951103 209.50523647249844 C 472.04083955705494 209.1586609342967 473.34764017214263 209.1586609342967 474.0010404796865 209.50523647249844 C 474.6544407872303 209.85181201070017 475.96124140231797 210.54496308710367 476.61464170986176 210.89153862530546 C 477.26804201740555 211.23811416350725 478.5748426324934 213.3175673927178 479.22824294003743 215.05044508372657 C 479.88164324758145 216.78332277473538 481.18844386266926 220.9422292331563 481.841844170213 223.36825800056846 C 482.4952444777567 225.79428676798062 483.8020450928443 228.91346661179628 484.4554454003882 229.60661768819978 "
                stroke-width="2.0" stroke="black" fill="none" latexdraw:rotationAngle="0.0"/>
        </g>
        <g latexdraw:type="dot" id="id1502653977"
            latexdraw:size="6.586275100042072" latexdraw:dotShape="*" latexdraw:position="484.66666666666697 222.0">
            <path
                d="M 487.7064859436095 222.0 C 487.7064859436095 223.678845828897 486.345512495564 225.0398192769425 484.66666666666697 225.0398192769425 C 482.98782083777 225.0398192769425 481.6268473897245 223.678845828897 481.6268473897245 222.0 C 481.6268473897245 220.321154171103 482.98782083777 218.9601807230575 484.66666666666697 218.9601807230575 C 486.345512495564 218.9601807230575 487.7064859436095 220.321154171103 487.7064859436095 222.0 z "
                fill="red" stroke-linecap="square"
                stroke-linejoin="butt" stroke-width="0.4116421937942505"
                stroke-miterlimit="10.0" stroke-dashoffset="0.0" stroke="red"/>
        </g>
        <g latexdraw:type="rectangle" id="id507029788">
            <rect x="480.9077792598832" y="202.72058606304236"
                width="8.9771251667363" height="40.399134311522744"
                latexdraw:borderPos="outer" stroke-width="2.0"
                stroke="black" fill="none" stroke-dasharray="8.819444444444445, 5.291666666666667"/>
        </g>
        <g latexdraw:type="text" id="id896002503" fill="black" latexdraw:position="bl">
            <text x="385.66666666666697" y="320.0">PROJECTION: $\mathbf{x}_i'$</text>
        </g>
        <g latexdraw:type="joinedLines" id="id580705459">
            <polyline
                points="532.6222811085354,219.51242133156666 589.2565971072099,219.51242133156643 "
                stroke-width="2.0" stroke="black"
                stroke-dasharray="8.819444444444445, 5.291666666666667"
                latexdraw:rotationAngle="0.0" marker-end="url(#arrow1-580705459)"/>
        </g>
        <g latexdraw:type="circle" id="id549366167">
            <circle cx="662.5384233189801" cy="223.44164734459537"
                r="71.7050899856464" latexdraw:borderPos="outer"
                stroke-width="2.0" stroke="black" fill="none"/>
        </g>
        <g latexdraw:type="akinPoints" id="id1856011554"
            latexdraw:pathType="CURVES" latexdraw:interval="1" latexdraw:points="621.5814115705641 203.90250261855067 624.1950128007393 219.58401338258582 626.8086140309147 222.72031553539279 629.4222152610901 219.58401338258582 632.0358164912655 191.35729400732254 634.6494177214412 178.81208539609497 637.2630189516162 185.084689701709 639.8766201817918 197.62989831293737 642.4902214119671 213.3114090769722 645.1038226421423 219.58401338258582 647.7174238723182 225.85661768820017 650.3310251024934 228.99291984100677 652.944626332669 225.85661768820017 655.5582275628444 219.58401338258582 658.1718287930198 181.9483875489019 660.7854300231954 178.81208539609497 663.3990312533708 181.9483875489019 666.0126324835461 194.49359616013004 668.6262337137217 219.58401338258582 671.239834943897 228.99291984100677 676.467037404248 225.85661768820017 679.0806386344233 181.9483875489019 681.6942398645988 178.81208539609497 684.3078410947742 181.9483875489019 686.9214423249493 185.084689701709 689.5350435551255 200.76620046574442 692.1486447853005 222.72031553539279 694.762246015476 228.99291984100677 ">
            <path
                d="M 621.5814115705641 203.90250261855067 L 622.8882121856517 211.74325800056823 C 623.5416124931955 215.66363569157704 624.8484131082831 220.36808892078756 625.501813415827 221.15216445898932 C 626.1552137233708 221.93623999719105 627.4620143384585 221.93623999719105 628.1154146460024 221.15216445898932 C 628.7688149535462 220.36808892078756 630.0756155686339 212.52733353877 630.7290158761778 205.4706536949542 C 631.3824161837216 198.41397385113837 632.6892167988094 188.22099185451566 633.3426171063534 185.08468970170875 C 633.9960174138973 181.94838754890185 635.302818028985 180.3802364724985 635.9562183365288 181.948387548902 C 636.6096186440725 183.5165386253055 637.9164192591602 188.22099185451611 638.569819566704 191.3572940073232 C 639.2232198742479 194.49359616013027 640.5300204893357 201.55027600394607 641.1834207968795 205.4706536949548 C 641.8368211044233 209.39103138596352 643.143621719511 214.87956015337562 643.7970220270547 216.44771122977903 C 644.4504223345984 218.01586230618244 645.7572229496864 221.15216445898943 646.4106232572303 222.720315535393 C 647.0640235647743 224.2884666117966 648.370824179862 226.64069322640182 649.0242244874058 227.42476876460347 C 649.6776247949497 228.20884430280512 650.9844254100374 228.20884430280512 651.6378257175812 227.42476876460347 C 652.2912260251251 226.64069322640182 653.5980266402129 224.2884666117966 654.2514269477567 222.720315535393 C 654.9048272553006 221.15216445898943 656.2116278703883 210.17510692416482 656.8650281779321 200.76620046574385 C 657.518428485476 191.35729400732288 658.8252291005638 181.16431201070017 659.4786294081076 180.38023647249844 C 660.1320297156515 179.5961609342967 661.4388303307393 179.5961609342967 662.0922306382831 180.38023647249844 C 662.745630945827 181.16431201070017 664.0524315609147 185.08468970170895 664.7058318684585 188.22099185451597 C 665.3592321760023 191.357294007323 666.66603279109 200.766200465744 667.3194330986339 207.03880477135795 C 667.9728334061779 213.31140907697187 669.2796340212656 221.93623999719108 669.9330343288093 224.2884666117963 C 670.5864346363531 226.64069322640154 672.5466355589847 228.20884430280512 673.8534361740725 227.42476876460347 C 675.1602367891603 226.64069322640182 677.1204377117919 214.87956015337562 677.7738380193357 203.90250261855104 C 678.4272383268794 192.92544508372646 679.7340389419671 181.16431201070017 680.3874392495111 180.38023647249844 C 681.0408395570549 179.5961609342967 682.3476401721426 179.5961609342967 683.0010404796865 180.38023647249844 C 683.6544407872303 181.16431201070017 684.9612414023179 182.73246308710367 685.6146417098618 183.51653862530546 C 686.2680420174056 184.30061416350725 687.5748426324934 189.00506739271788 688.2282429400375 192.92544508372671 C 688.8816432475815 196.84582277473555 690.1884438626693 206.25472923315652 690.841844170213 211.7432580005686 C 691.4952444777567 217.23178676798068 692.8020450928443 224.28846661179628 693.4554454003883 225.85661768819978 "
                stroke-width="2.0" stroke="black" fill="none" latexdraw:rotationAngle="0.0"/>
        </g>
        <g latexdraw:type="dot" id="id156485726"
            latexdraw:size="6.586275100042072" latexdraw:dotShape="*" latexdraw:position="693.666666666667 220.0">
            <path
                d="M 696.7064859436094 220.0 C 696.7064859436094 221.678845828897 695.345512495564 223.0398192769425 693.666666666667 223.0398192769425 C 691.98782083777 223.0398192769425 690.6268473897245 221.678845828897 690.6268473897245 220.0 C 690.6268473897245 218.321154171103 691.98782083777 216.9601807230575 693.666666666667 216.9601807230575 C 695.345512495564 216.9601807230575 696.7064859436094 218.321154171103 696.7064859436094 220.0 z "
                fill="red" stroke-linecap="square"
                stroke-linejoin="butt" stroke-width="0.4116421937942505"
                stroke-miterlimit="10.0" stroke-dashoffset="0.0" stroke="red"/>
        </g>
        <g latexdraw:type="rectangle" id="id612806780">
            <rect x="687.9077792598832" y="205.72058606304245"
                width="10.9771251667363" height="56.39913431152263"
                latexdraw:borderPos="outer" stroke-width="2.0"
                stroke="black" fill="none" stroke-dasharray="8.819444444444445, 5.291666666666667"/>
        </g>
        <g latexdraw:type="akinPoints" id="id42488145"
            latexdraw:pathType="CURVES" latexdraw:interval="1" latexdraw:points="621.5814115705641 240.47004500774352 625.6470134841703 219.77723209090203 629.7126153977762 205.9820234796739 633.7782173113825 199.0844191740598 637.8438192249886 212.8796277852876 641.909421138595 219.77723209090203 645.9750230522014 233.57244070212946 650.0406249658074 240.47004500774352 654.1062268794135 233.57244070212946 658.1718287930198 226.67483639651564 662.2374307066264 233.57244070212946 666.3030326202329 247.36764931335756 670.3686345338385 254.26525361897143 674.4342364474442 247.36764931335756 678.4998383610508 212.8796277852876 682.5654402746575 199.0844191740598 686.6310421882638 233.57244070212946 690.6966441018697 254.26525361897143 694.762246015476 233.57244070212946 ">
            <path
                d="M 621.5814115705641 240.47004500774352 L 623.6142125273673 230.12363854932278 C 624.6306130057687 224.9504353201124 626.6634139625718 216.32842993809498 627.6798144409732 212.87962778528797 C 628.6962149193747 209.43082563248095 630.7290158761778 204.25762240327037 631.7454163545793 202.53322132686685 C 632.7618168329809 200.80882025046333 634.7946177897841 202.53322132686674 635.8110182681855 205.9820234796737 C 636.827418746587 209.43082563248066 638.8602197033902 214.6040288616912 639.8766201817918 216.3284299380948 C 640.8930206601934 218.05283101449842 642.9258216169966 223.22603424370888 643.9422220953982 226.67483639651573 C 644.9586225737999 230.1236385493226 646.991423530603 235.29684177853295 648.0078240090045 237.02124285493647 C 649.024224487406 238.74564393134 651.0570254442089 238.74564393134 652.0734259226105 237.02124285493647 C 653.089826401012 235.29684177853295 655.1226273578151 231.84803962572602 656.1390278362167 230.12363854932255 C 657.1554283146182 228.39923747291908 659.1882292714215 228.39923747291908 660.2046297498231 230.12363854932255 C 661.2210302282247 231.84803962572602 663.253831185028 237.02124285493647 664.2702316634296 240.47004500774352 C 665.2866321418312 243.91884716055054 667.3194330986344 249.09205038976103 668.3358335770357 250.8164514661645 C 669.3522340554371 252.54085254256796 671.38503501224 252.54085254256796 672.4014354906413 250.8164514661645 C 673.4178359690427 249.09205038976103 675.4506369258459 238.74564393134006 676.4670374042475 230.12363854932258 C 677.4834378826492 221.5016331673051 679.5162388394524 209.43082563248066 680.5326393178541 205.9820234796737 C 681.5490397962558 202.53322132686674 683.581840753059 207.70642455607722 684.5982412314606 216.32842993809464 C 685.6146417098622 224.95043532011204 687.6474426666653 238.74564393133994 688.6638431450667 243.91884716055046 C 689.6802436234682 249.09205038976094 691.7130445802712 249.09205038976094 692.7294450586728 243.91884716055046 "
                stroke-width="2.0" stroke="black" fill="none" latexdraw:rotationAngle="0.0"/>
        </g>
        <g latexdraw:type="dot" id="id616192361"
            latexdraw:size="6.586275100042072" latexdraw:dotShape="*" latexdraw:position="694.666666666667 245.0">
            <path
                d="M 697.7064859436094 245.0 C 697.7064859436094 246.678845828897 696.345512495564 248.0398192769425 694.666666666667 248.0398192769425 C 692.98782083777 248.0398192769425 691.6268473897245 246.678845828897 691.6268473897245 245.0 C 691.6268473897245 243.321154171103 692.98782083777 241.9601807230575 694.666666666667 241.9601807230575 C 696.345512495564 241.9601807230575 697.7064859436094 243.321154171103 697.7064859436094 245.0 z "
                fill="red" stroke-linecap="square"
                stroke-linejoin="butt" stroke-width="0.4116421937942505"
                stroke-miterlimit="10.0" stroke-dashoffset="0.0" stroke="red"/>
        </g>
        <g latexdraw:type="text" id="id477234465" fill="black" latexdraw:position="bl">
            <text x="568.7777777777783" y="319.0">RECONSTRUCTION: $\hat{\mathbf{x}}_i$</text>
        </g>
        <g latexdraw:type="text" id="id358056360" fill="black" latexdraw:position="bl">
            <text x="325.66666666666697" y="213.0">$\mathbf{f}(\mathbf{x}_i)$</text>
        </g>
        <g latexdraw:type="text" id="id817696791" fill="black" latexdraw:position="bl">
            <text x="537.1111111111113" y="211.8888888888887">$\mathbf{g}(\mathbf{x}_i')$</text>
        </g>
    </g>
    <defs>
        <marker overflow="visible" orient="auto" id="arrow1-1679078810">
            <path
                d="M 0.0 0.0 L -7.126750000000001 2.4575000000000005 L -7.126750000000001 0.0 L -7.126750000000001 -2.4575000000000005 z "
                latexdraw:arrSizeNum="2.0900000000000003" fill="black"/>
        </marker>
        <marker overflow="visible" orient="auto" id="arrow1-1288368630">
            <path
                d="M 0.0 0.0 L -7.126750000000001 2.4575000000000005 L -7.126750000000001 0.0 L -7.126750000000001 -2.4575000000000005 z "
                latexdraw:arrSizeNum="2.0900000000000003" fill="black"/>
        </marker>
        <marker overflow="visible" orient="auto" id="arrow1-580705459">
            <path
                d="M 0.0 0.0 L -7.126750000000001 2.4575000000000005 L -7.126750000000001 0.0 L -7.126750000000001 -2.4575000000000005 z "
                latexdraw:arrSizeNum="2.0900000000000003" fill="black"/>
        </marker>
    </defs>
    <metadata>
        <latexdraw:metadata>
            <latexdraw:latexIncludes/>
            <latexdraw:displayXScale>true</latexdraw:displayXScale>
            <latexdraw:displayYScale>true</latexdraw:displayYScale>
            <latexdraw:unit>CM</latexdraw:unit>
            <latexdraw:zoom>0.8999999999999999</latexdraw:zoom>
            <latexdraw:magneticGridStyle>CUSTOMISED</latexdraw:magneticGridStyle>
            <latexdraw:gridGap>20</latexdraw:gridGap>
            <latexdraw:magneticGrid>false</latexdraw:magneticGrid>
            <latexdraw:version>3.3.8</latexdraw:version>
            <latexdraw:size>
                <latexdraw:width>1309</latexdraw:width>
                <latexdraw:height>768</latexdraw:height>
            </latexdraw:size>
            <latexdraw:position>
                <latexdraw:x>65.0</latexdraw:x>
                <latexdraw:y>0.0</latexdraw:y>
            </latexdraw:position>
        </latexdraw:metadata>
    </metadata>
</svg>
