<?xml version="1.1" encoding="windows-1252"?>
<svg xmlns="http://www.w3.org/2000/svg"
    xmlns:latexdraw="http://latexdraw.sourceforge.net/namespaces/latexdraw"
    version="1.1" baseProfile="full">
    <g>
        <g latexdraw:type="akinPoints" id="id1306709537"
            latexdraw:pathType="CURVES" latexdraw:interval="5" latexdraw:points="480.0 440.0 500.0 360.0 520.0 380.0 ">
            <path d="M 480.0 440.0 " stroke-width="2.0" stroke="black"
                fill="none" latexdraw:rotationAngle="0.0"/>
        </g>
        <g latexdraw:type="text" id="id2044564842" fill="black" latexdraw:position="bl">
            <text x="65.3521033454787" y="94.33289168598884">INPUT</text>
        </g>
        <g latexdraw:type="joinedLines" id="id438171398">
            <polyline
                points="171.9556144418682,179.51242133156643 243.58993044054296,179.51242133156643 "
                stroke-width="2.0" stroke="black"
                stroke-dasharray="8.819444444444445, 5.291666666666667"
                latexdraw:rotationAngle="0.0" marker-end="url(#arrow1-438171398)"/>
        </g>
        <g latexdraw:type="rectangle" id="id905062217">
            <rect x="208.71116263663407" y="69.0"
                width="620.2646571712443" height="224.72209340841283"
                latexdraw:borderPos="outer" stroke-width="2.0"
                stroke="black" fill="none" stroke-dasharray="8.819444444444445, 5.291666666666667"/>
        </g>
        <g latexdraw:type="text" id="id829636232" fill="black" latexdraw:position="bl">
            <text x="401.6475654190126" y="60.117919841006795">\begin{tabular}{c}
RECONSTRUCTION BASED \\
OUTLIER DETECTION
\end{tabular}</text>
        </g>
        <g latexdraw:type="joinedLines" id="id354389888">
            <polyline
                points="801.7333554156949,180.63365352765797 881.125207022189,180.63365352765797 "
                stroke-width="2.0" stroke="black"
                stroke-dasharray="8.819444444444445, 5.291666666666667"
                latexdraw:rotationAngle="0.0" marker-end="url(#arrow1-354389888)"/>
        </g>
        <g latexdraw:type="circle" id="id1672822570">
            <circle cx="955.794910014353" cy="184.56287954068677"
                r="72.20508998564696" latexdraw:borderPos="outer"
                stroke-width="2.0" stroke="black" fill="none"/>
        </g>
        <g latexdraw:type="text" id="id1437344287" fill="black" latexdraw:position="bl">
            <text x="916.2451142762463" y="94.4541238820802">OUTPUT</text>
        </g>
        <g latexdraw:type="text" id="id41438522" fill="black" latexdraw:position="bl">
            <text x="898.9075494838936" y="189.68107727634919">$O_i = \|{\bf x}_i - \hat{{\bf x}}_i\|^2$</text>
        </g>
        <g latexdraw:type="circle" id="id1912539426">
            <circle cx="93.87175665231314" cy="183.9416473445953"
                r="71.2050899856464" latexdraw:borderPos="outer"
                stroke-width="2.0" stroke="black" fill="none"/>
        </g>
        <g latexdraw:type="akinPoints" id="id1045425922"
            latexdraw:pathType="CURVES" latexdraw:interval="1" latexdraw:points="51.914744903897144 212.97004500774352 55.980346817503346 185.52723209090206 60.045948731109206 167.23202347967384 64.11155064471552 158.08441917405975 68.17715255832161 176.37962778528754 72.24275447192804 185.52723209090206 76.30835638553447 203.82244070212943 80.37395829914044 212.97004500774352 84.43956021274653 203.82244070212943 88.50516212635284 194.67483639651562 92.57076403995939 203.82244070212943 96.63636595356593 222.11764931335756 100.70196786717156 231.2652536189714 104.7675697807772 222.11764931335756 108.83317169438385 176.37962778528754 112.8987736079905 158.08441917405975 116.96437552159682 203.82244070212943 121.02997743520268 231.2652536189714 125.095579348809 203.82244070212943 ">
            <path
                d="M 51.914744903897144 212.97004500774352 L 53.947545860700245 199.24863854932278 C 54.963946339101796 192.38793532011243 56.99674729590481 180.95342993809498 58.013147774306276 176.37962778528794 C 59.02954825270774 171.8058256324809 61.062349209510785 164.94512240327032 62.078749687912364 162.6582213268668 C 63.09515016631394 160.37132025046327 65.12795112311704 162.65822132686668 66.14435160151857 167.23202347967364 C 67.16075207992009 171.8058256324806 69.19355303672322 178.66652886169118 70.20995351512482 180.9534299380948 C 71.22635399352643 183.24033101449845 73.25915495032964 190.1010342437089 74.27555542873125 194.67483639651573 C 75.29195590713286 199.24863854932258 77.32475686393596 206.10934177853295 78.34115734233745 208.39624285493647 C 79.35755782073895 210.68314393134 81.39035877754196 210.68314393134 82.40675925594348 208.39624285493647 C 83.423159734345 206.10934177853295 85.4559606911481 201.53553962572596 86.47236116954969 199.24863854932252 C 87.48876164795126 196.96173747291908 89.52156260475448 196.96173747291908 90.53796308315611 199.24863854932252 C 91.55436356155775 201.53553962572596 93.58716451836102 208.39624285493647 94.60356499676266 212.9700450077435 C 95.61996547516429 217.5438471605505 97.65276643196734 224.40455038976103 98.66916691036874 226.6914514661645 C 99.68556738877015 228.97835254256796 101.71836834557297 228.97835254256796 102.73476882397438 226.6914514661645 C 103.75116930237579 224.40455038976103 105.78397025917886 210.68314393134006 106.80037073758052 199.24863854932255 C 107.81677121598219 187.81413316730504 109.84957217278551 171.8058256324806 110.86597265118718 167.23202347967364 C 111.88237312958884 162.65822132686668 113.91517408639208 169.51892455607717 114.93157456479366 180.9534299380946 C 115.94797504319524 192.387935320112 117.98077599999829 210.6831439313399 118.99717647839975 217.5438471605504 C 120.01357695680122 224.4045503897609 122.04637791360426 224.4045503897609 123.06277839200584 217.5438471605504 "
                stroke-width="2.0" stroke="black" fill="none" latexdraw:rotationAngle="0.0"/>
        </g>
        <g latexdraw:type="akinPoints" id="id780997066"
            latexdraw:pathType="CURVES" latexdraw:interval="1" latexdraw:points="51.914744903897144 165.40250261855078 54.52834613407231 188.27151338258585 57.1419473642477 192.84531553539279 59.75554859442309 188.27151338258585 62.36914982459848 147.10729400732276 64.98275105477421 128.81208539609506 67.59635228494926 137.9596897017091 70.20995351512488 156.25489831293726 72.82355474530016 179.1239090769721 75.43715597547532 188.27151338258585 78.05075720565128 197.41911768820006 80.66435843582644 201.99291984100677 83.27795966600206 197.41911768820006 85.89156089617745 188.27151338258585 88.50516212635284 133.38588754890196 91.11876335652846 128.81208539609506 93.73236458670385 133.38588754890196 96.34596581687913 151.6810961601301 98.95956704705475 188.27151338258585 101.57316827723002 201.99291984100677 106.80037073758103 197.41911768820006 109.41397196775631 133.38588754890196 112.02757319793182 128.81208539609506 114.6411744281072 133.38588754890196 117.25477565828237 137.9596897017091 119.86837688845856 160.82870046574436 122.48197811863349 192.84531553539279 125.095579348809 201.99291984100677 ">
            <path
                d="M 51.914744903897144 165.40250261855078 L 53.221545518984726 176.83700800056832 C 53.87494582652852 182.5542606915771 55.181746441616156 189.41496392078759 55.83514674916 190.55841445898932 C 56.48854705670385 191.70186499719105 57.795347671791546 191.70186499719105 58.448747979335394 190.55841445898932 C 59.10214828687924 189.41496392078759 60.40894890196694 177.98045853877008 61.062349209510785 167.6894036949543 C 61.71574951705463 157.39834885113854 63.02255013214241 142.53349185451583 63.675950439686346 137.9596897017089 C 64.32935074723028 133.38588754890196 65.63615136231797 131.09898647249855 66.28955166986174 133.38588754890208 C 66.9429519774055 135.6727886253056 68.24975259249317 142.53349185451611 68.90315290003707 147.10729400732316 C 69.55655320758098 151.6810961601302 70.8633538226687 161.97215100394595 71.51675413021252 167.68940369495468 C 72.17015443775634 173.4066563859634 73.47695505284395 181.41081015337554 74.13035536038774 183.69771122977897 C 74.78375566793153 185.9846123061824 76.09055628301931 190.5584144589894 76.7439565905633 192.84531553539296 C 77.39735689810729 195.1322166117965 78.70415751319507 198.56256822640174 79.35755782073886 199.7060187646034 C 80.01095812828265 200.8494693028051 81.31775874337035 200.8494693028051 81.97115905091425 199.7060187646034 C 82.62455935845816 198.56256822640174 83.93135997354591 195.1322166117965 84.58476028108976 192.84531553539296 C 85.2381605886336 190.5584144589894 86.5449612037213 174.55010692416488 87.19836151126515 160.8287004657439 C 87.851761818809 147.10729400732293 89.15856243389675 132.24243701070023 89.81196274144065 131.0989864724985 C 90.46536304898456 129.9555359342968 91.77216366407231 129.9555359342968 92.42556397161616 131.0989864724985 C 93.07896427916 132.24243701070023 94.38576489424767 137.959689701709 95.03916520179149 142.53349185451603 C 95.69256550933531 147.10729400732305 96.99936612442303 160.82870046574402 97.65276643196694 169.97630477135797 C 98.30616673951084 179.12390907697193 99.61296735459857 191.70186499719108 100.26636766214239 195.1322166117963 C 100.9197679696862 198.56256822640154 102.87996889231778 200.8494693028051 104.18676950740553 199.7060187646034 C 105.49357012249328 198.56256822640174 107.45377104512485 181.41081015337554 108.10717135266867 165.402502618551 C 108.76057166021249 149.3941950837265 110.06737227530019 132.24243701070023 110.72077258284406 131.0989864724985 C 111.37417289038794 129.9555359342968 112.68097350547566 129.9555359342968 113.33437381301951 131.0989864724985 C 113.98777412056336 132.24243701070023 115.294574735651 134.52933808710375 115.94797504319479 135.67278862530554 C 116.60137535073858 136.8162391635073 117.90817596582642 143.67694239271793 118.56157627337046 149.39419508372674 C 119.21497658091451 155.11144777473555 120.52177719600229 168.83285423315647 121.17517750354602 176.83700800056857 C 121.82857781108976 184.84116176798068 123.13537842617737 195.13221661179628 123.78877873372124 197.41911768819978 "
                stroke-width="2.0" stroke="black" fill="none" latexdraw:rotationAngle="0.0"/>
        </g>
        <g latexdraw:type="dot" id="id1659941445"
            latexdraw:size="6.586275100042072" latexdraw:dotShape="*" latexdraw:position="124.0 193.0">
            <path
                d="M 127.0398192769425 193.0 C 127.0398192769425 194.678845828897 125.67884582889701 196.0398192769425 124.0 196.0398192769425 C 122.32115417110299 196.0398192769425 120.9601807230575 194.678845828897 120.9601807230575 193.0 C 120.9601807230575 191.321154171103 122.32115417110299 189.9601807230575 124.0 189.9601807230575 C 125.67884582889701 189.9601807230575 127.0398192769425 191.321154171103 127.0398192769425 193.0 z "
                fill="red" stroke-linecap="square"
                stroke-linejoin="butt" stroke-width="0.4116421937942505"
                stroke-miterlimit="10.0" stroke-dashoffset="0.0" stroke="red"/>
        </g>
        <g latexdraw:type="dot" id="id384108049"
            latexdraw:size="6.586275100042072" latexdraw:dotShape="*" latexdraw:position="124.0 217.0">
            <path
                d="M 127.0398192769425 217.0 C 127.0398192769425 218.678845828897 125.67884582889701 220.0398192769425 124.0 220.0398192769425 C 122.32115417110299 220.0398192769425 120.9601807230575 218.678845828897 120.9601807230575 217.0 C 120.9601807230575 215.321154171103 122.32115417110299 213.9601807230575 124.0 213.9601807230575 C 125.67884582889701 213.9601807230575 127.0398192769425 215.321154171103 127.0398192769425 217.0 z "
                fill="red" stroke-linecap="square"
                stroke-linejoin="butt" stroke-width="0.4116421937942505"
                stroke-miterlimit="10.0" stroke-dashoffset="0.0" stroke="red"/>
        </g>
        <g latexdraw:type="rectangle" id="id1635791396">
            <rect x="120.24111259321614" y="173.72058606304236"
                width="8.977125166736414" height="62.399134311522715"
                latexdraw:borderPos="outer" stroke-width="2.0"
                stroke="black" fill="none" stroke-dasharray="8.819444444444445, 5.291666666666667"/>
        </g>
        <g latexdraw:type="text" id="id621928159" fill="black" latexdraw:position="bl">
            <text x="138.87727948219845" y="188.3297359963476">${\bf x}_i$</text>
        </g>
        <g latexdraw:type="circle" id="id1485921754">
            <circle cx="316.87175665231314" cy="184.4416473445953"
                r="71.7050899856464" latexdraw:borderPos="outer"
                stroke-width="2.0" stroke="black" fill="none"/>
        </g>
        <g latexdraw:type="akinPoints" id="id1199795084"
            latexdraw:pathType="CURVES" latexdraw:interval="1" latexdraw:points="274.91474490389714 213.97004500774352 278.98034681750335 186.52723209090206 283.0459487311092 168.23202347967384 287.1115506447155 159.08441917405975 291.1771525583216 177.37962778528754 295.24275447192804 186.52723209090206 299.30835638553447 204.82244070212943 303.37395829914044 213.97004500774352 307.4395602127465 204.82244070212943 311.50516212635284 195.67483639651562 315.5707640399594 204.82244070212943 319.6363659535659 223.11764931335756 323.70196786717156 232.26525361897143 327.7675697807772 223.11764931335756 331.83317169438385 177.37962778528754 335.8987736079905 159.08441917405975 339.9643755215968 204.82244070212943 344.0299774352027 232.26525361897143 348.095579348809 204.82244070212943 ">
            <path
                d="M 274.91474490389714 213.97004500774352 L 276.94754586070025 200.24863854932278 C 277.96394633910177 193.38793532011243 279.9967472959048 181.95342993809498 281.0131477743063 177.37962778528794 C 282.02954825270774 172.8058256324809 284.0623492095108 165.94512240327032 285.07874968791236 163.6582213268668 C 286.09515016631394 161.37132025046327 288.12795112311704 163.65822132686668 289.14435160151857 168.23202347967364 C 290.1607520799201 172.8058256324806 292.1935530367232 179.66652886169118 293.2099535151248 181.9534299380948 C 294.22635399352646 184.24033101449845 296.2591549503296 191.1010342437089 297.27555542873125 195.67483639651573 C 298.2919559071329 200.24863854932258 300.32475686393593 207.10934177853295 301.34115734233745 209.39624285493647 C 302.357557820739 211.68314393134 304.39035877754196 211.68314393134 305.4067592559435 209.39624285493647 C 306.423159734345 207.10934177853295 308.4559606911481 202.53553962572596 309.4723611695497 200.24863854932252 C 310.48876164795126 197.96173747291908 312.5215626047545 197.96173747291908 313.5379630831561 200.24863854932252 C 314.55436356155775 202.53553962572596 316.587164518361 209.39624285493647 317.60356499676266 213.9700450077435 C 318.6199654751643 218.5438471605505 320.65276643196734 225.40455038976103 321.66916691036874 227.6914514661645 C 322.68556738877015 229.97835254256796 324.71836834557297 229.97835254256796 325.7347688239744 227.6914514661645 C 326.7511693023758 225.40455038976103 328.7839702591789 211.68314393134006 329.8003707375805 200.24863854932255 C 330.81677121598216 188.81413316730504 332.84957217278554 172.8058256324806 333.8659726511872 168.23202347967364 C 334.8823731295888 163.65822132686668 336.9151740863921 170.51892455607717 337.93157456479366 181.9534299380946 C 338.94797504319524 193.387935320112 340.9807759999983 211.68314393133994 341.99717647839975 218.54384716055043 C 343.0135769568012 225.4045503897609 345.04637791360426 225.4045503897609 346.06277839200584 218.54384716055043 "
                stroke-width="2.0" stroke="black" fill="none" latexdraw:rotationAngle="0.0"/>
        </g>
        <g latexdraw:type="akinPoints" id="id1763245745"
            latexdraw:pathType="CURVES" latexdraw:interval="1" latexdraw:points="274.91474490389714 166.40250261855078 277.5283461340723 189.27151338258585 280.1419473642477 193.84531553539279 282.7555485944231 189.27151338258585 285.3691498245985 148.10729400732276 287.9827510547742 129.81208539609506 290.59635228494926 138.9596897017091 293.2099535151249 157.25489831293726 295.82355474530016 180.1239090769721 298.4371559754753 189.27151338258585 301.0507572056513 198.41911768820006 303.66435843582644 202.99291984100677 306.27795966600206 198.41911768820006 308.89156089617745 189.27151338258585 311.50516212635284 134.38588754890196 314.11876335652846 129.81208539609506 316.73236458670385 134.38588754890196 319.34596581687913 152.6810961601301 321.95956704705475 189.27151338258585 324.57316827723 202.99291984100677 329.80037073758103 198.41911768820006 332.4139719677563 134.38588754890196 335.0275731979318 129.81208539609506 337.6411744281072 134.38588754890196 340.25477565828237 138.9596897017091 342.86837688845856 161.82870046574436 345.4819781186335 193.84531553539279 348.095579348809 202.99291984100677 ">
            <path
                d="M 274.91474490389714 166.40250261855078 L 276.2215455189847 177.83700800056832 C 276.8749458265285 183.5542606915771 278.18174644161616 190.41496392078759 278.83514674916 191.55841445898932 C 279.48854705670385 192.70186499719105 280.79534767179155 192.70186499719105 281.4487479793354 191.55841445898932 C 282.10214828687924 190.41496392078759 283.40894890196694 178.98045853877008 284.0623492095108 168.6894036949543 C 284.71574951705463 158.39834885113854 286.02255013214244 143.53349185451583 286.67595043968635 138.9596897017089 C 287.32935074723025 134.38588754890196 288.63615136231795 132.09898647249855 289.28955166986174 134.38588754890208 C 289.9429519774055 136.6727886253056 291.24975259249317 143.53349185451611 291.90315290003707 148.10729400732316 C 292.556553207581 152.6810961601302 293.8633538226687 162.97215100394595 294.5167541302125 168.68940369495468 C 295.1701544377563 174.4066563859634 296.47695505284395 182.41081015337554 297.13035536038774 184.69771122977897 C 297.78375566793153 186.9846123061824 299.0905562830193 191.5584144589894 299.7439565905633 193.84531553539296 C 300.3973568981073 196.1322166117965 301.70415751319507 199.56256822640174 302.35755782073886 200.7060187646034 C 303.01095812828265 201.8494693028051 304.31775874337035 201.8494693028051 304.97115905091425 200.7060187646034 C 305.62455935845816 199.56256822640174 306.9313599735459 196.1322166117965 307.58476028108976 193.84531553539296 C 308.2381605886336 191.5584144589894 309.5449612037213 175.55010692416488 310.19836151126515 161.8287004657439 C 310.851761818809 148.10729400732293 312.15856243389675 133.24243701070023 312.81196274144065 132.0989864724985 C 313.46536304898456 130.9555359342968 314.7721636640723 130.9555359342968 315.42556397161616 132.0989864724985 C 316.07896427916 133.24243701070023 317.3857648942477 138.959689701709 318.0391652017915 143.53349185451603 C 318.6925655093353 148.10729400732305 319.99936612442303 161.82870046574402 320.65276643196694 170.97630477135797 C 321.30616673951084 180.12390907697193 322.6129673545986 192.70186499719108 323.2663676621424 196.1322166117963 C 323.9197679696862 199.56256822640154 325.8799688923178 201.8494693028051 327.18676950740553 200.7060187646034 C 328.4935701224933 199.56256822640174 330.4537710451249 182.41081015337554 331.1071713526687 166.402502618551 C 331.76057166021246 150.3941950837265 333.06737227530016 133.24243701070023 333.72077258284406 132.0989864724985 C 334.37417289038797 130.9555359342968 335.68097350547566 130.9555359342968 336.3343738130195 132.0989864724985 C 336.98777412056336 133.24243701070023 338.294574735651 135.52933808710375 338.9479750431948 136.67278862530554 C 339.6013753507386 137.8162391635073 340.90817596582644 144.67694239271793 341.56157627337046 150.39419508372674 C 342.2149765809145 156.11144777473555 343.5217771960023 169.83285423315647 344.175177503546 177.83700800056857 C 344.82857781108976 185.84116176798068 346.13537842617734 196.13221661179628 346.78877873372124 198.41911768819978 "
                stroke-width="2.0" stroke="black" fill="none" latexdraw:rotationAngle="0.0"/>
        </g>
        <g latexdraw:type="dot" id="id546241503"
            latexdraw:size="6.586275100042072" latexdraw:dotShape="*" latexdraw:position="347.0 194.0">
            <path
                d="M 350.0398192769425 194.0 C 350.0398192769425 195.678845828897 348.678845828897 197.0398192769425 347.0 197.0398192769425 C 345.32115417110305 197.0398192769425 343.96018072305753 195.678845828897 343.96018072305753 194.0 C 343.96018072305753 192.321154171103 345.32115417110305 190.9601807230575 347.0 190.9601807230575 C 348.678845828897 190.9601807230575 350.0398192769425 192.321154171103 350.0398192769425 194.0 z "
                fill="red" stroke-linecap="square"
                stroke-linejoin="butt" stroke-width="0.4116421937942505"
                stroke-miterlimit="10.0" stroke-dashoffset="0.0" stroke="red"/>
        </g>
        <g latexdraw:type="dot" id="id498569468"
            latexdraw:size="6.586275100042072" latexdraw:dotShape="*" latexdraw:position="347.0 218.0">
            <path
                d="M 350.0398192769425 218.0 C 350.0398192769425 219.678845828897 348.678845828897 221.0398192769425 347.0 221.0398192769425 C 345.32115417110305 221.0398192769425 343.96018072305753 219.678845828897 343.96018072305753 218.0 C 343.96018072305753 216.321154171103 345.32115417110305 214.9601807230575 347.0 214.9601807230575 C 348.678845828897 214.9601807230575 350.0398192769425 216.321154171103 350.0398192769425 218.0 z "
                fill="red" stroke-linecap="square"
                stroke-linejoin="butt" stroke-width="0.4116421937942505"
                stroke-miterlimit="10.0" stroke-dashoffset="0.0" stroke="red"/>
        </g>
        <g latexdraw:type="rectangle" id="id1596891682">
            <rect x="330.24111259321626" y="124.72058606304245"
                width="21.9771251667363" height="109.39913431152263"
                latexdraw:borderPos="outer" stroke-width="2.0"
                stroke="black" fill="none" stroke-dasharray="8.819444444444445, 5.291666666666667"/>
        </g>
        <g latexdraw:type="text" id="id719011914" fill="black" latexdraw:position="bl">
            <text x="364.87727948219845" y="188.3297359963476">${\bf x}_i$</text>
        </g>
        <g latexdraw:type="joinedLines" id="id1615930638">
            <polyline
                points="392.9556144418684,181.51242133156643 445.58993044054296,181.51242133156643 "
                stroke-width="2.0" stroke="black"
                stroke-dasharray="8.819444444444445, 5.291666666666667"
                latexdraw:rotationAngle="0.0" marker-end="url(#arrow1-1615930638)"/>
        </g>
        <g latexdraw:type="circle" id="id296437715">
            <circle cx="517.8717566523131" cy="183.9416473445953"
                r="71.2050899856464" latexdraw:borderPos="outer"
                stroke-width="2.0" stroke="black" fill="none"/>
        </g>
        <g latexdraw:type="akinPoints" id="id1369059697"
            latexdraw:pathType="CURVES" latexdraw:interval="1" latexdraw:points="475.91474490389714 179.90250261855073 478.5283461340723 186.83401338258582 481.1419473642477 188.22031553539279 483.7555485944231 186.83401338258582 486.3691498245985 174.3572940073227 488.9827510547742 168.81208539609497 491.59635228494926 171.584689701709 494.2099535151249 177.12989831293714 496.82355474530016 184.06140907697204 499.4371559754753 186.83401338258582 502.0507572056513 189.6066176882 504.66435843582644 190.99291984100677 507.27795966600206 189.6066176882 509.89156089617745 186.83401338258582 512.5051621263528 170.1983875489019 515.1187633565285 168.81208539609497 517.7323645867039 170.1983875489019 520.3459658168791 175.74359616013004 522.9595670470547 186.83401338258582 525.57316827723 190.99291984100677 530.800370737581 189.6066176882 533.4139719677563 170.1983875489019 536.0275731979318 168.81208539609497 538.6411744281072 170.1983875489019 541.2547756582824 171.584689701709 543.8683768884586 178.51620046574416 546.4819781186335 188.22031553539279 549.095579348809 190.99291984100677 ">
            <path
                d="M 475.91474490389714 179.90250261855073 L 477.2215455189847 183.3682580005683 C 477.8749458265285 185.10113569157704 479.18174644161616 187.18058892078756 479.83514674916 187.52716445898932 C 480.48854705670385 187.87373999719105 481.79534767179155 187.87373999719105 482.4487479793354 187.52716445898932 C 483.10214828687924 187.18058892078756 484.40894890196694 183.71483353877005 485.0623492095108 180.59565369495425 C 485.71574951705463 177.47647385113848 487.02255013214244 172.97099185451577 487.67595043968635 171.58468970170884 C 488.32935074723025 170.1983875489019 489.63615136231795 169.5052364724985 490.28955166986174 170.198387548902 C 490.9429519774055 170.8915386253055 492.24975259249317 172.97099185451606 492.90315290003707 174.35729400732308 C 493.556553207581 175.7435961601301 494.8633538226687 178.86277600394587 495.5167541302125 180.5956536949546 C 496.1701544377563 182.32853138596332 497.47695505284395 184.75456015337548 498.13035536038774 185.44771122977892 C 498.78375566793153 186.14086230618238 500.0905562830193 187.52716445898938 500.7439565905633 188.2203155353929 C 501.3973568981073 188.91346661179645 502.70415751319507 189.9531932264017 503.35755782073886 190.29976876460339 C 504.01095812828265 190.64634430280506 505.31775874337035 190.64634430280506 505.97115905091425 190.29976876460339 C 506.62455935845816 189.9531932264017 507.9313599735459 188.91346661179645 508.58476028108976 188.2203155353929 C 509.2381605886336 187.52716445898938 510.5449612037213 182.67510692416482 511.19836151126515 178.51620046574385 C 511.851761818809 174.35729400732288 513.1585624338968 169.85181201070017 513.8119627414407 169.50523647249844 C 514.4653630489845 169.1586609342967 515.7721636640723 169.1586609342967 516.4255639716162 169.50523647249844 C 517.07896427916 169.85181201070017 518.3857648942477 171.58468970170895 519.0391652017915 172.97099185451597 C 519.6925655093353 174.357294007323 520.999366124423 178.516200465744 521.6527664319669 181.28880477135795 C 522.3061667395109 184.06140907697187 523.6129673545986 187.87373999719108 524.2663676621423 188.9134666117963 C 524.9197679696862 189.95319322640154 526.8799688923177 190.64634430280506 528.1867695074055 190.29976876460339 C 529.4935701224933 189.9531932264017 531.4537710451249 184.75456015337548 532.1071713526687 179.90250261855095 C 532.7605716602125 175.05044508372643 534.0673722753002 169.85181201070017 534.7207725828441 169.50523647249844 C 535.374172890388 169.1586609342967 536.6809735054757 169.1586609342967 537.3343738130195 169.50523647249844 C 537.9877741205634 169.85181201070017 539.2945747356509 170.54496308710367 539.9479750431948 170.89153862530546 C 540.6013753507386 171.23811416350725 541.9081759658264 173.3175673927178 542.5615762733705 175.05044508372657 C 543.2149765809145 176.78332277473538 544.5217771960023 180.9422292331563 545.175177503546 183.36825800056846 C 545.8285778110898 185.79428676798062 547.1353784261773 188.91346661179628 547.7887787337213 189.60661768819978 "
                stroke-width="2.0" stroke="black" fill="none" latexdraw:rotationAngle="0.0"/>
        </g>
        <g latexdraw:type="dot" id="id968477959"
            latexdraw:size="6.586275100042072" latexdraw:dotShape="*" latexdraw:position="548.0 182.0">
            <path
                d="M 551.0398192769425 182.0 C 551.0398192769425 183.678845828897 549.678845828897 185.0398192769425 548.0 185.0398192769425 C 546.321154171103 185.0398192769425 544.9601807230575 183.678845828897 544.9601807230575 182.0 C 544.9601807230575 180.321154171103 546.321154171103 178.9601807230575 548.0 178.9601807230575 C 549.678845828897 178.9601807230575 551.0398192769425 180.321154171103 551.0398192769425 182.0 z "
                fill="red" stroke-linecap="square"
                stroke-linejoin="butt" stroke-width="0.4116421937942505"
                stroke-miterlimit="10.0" stroke-dashoffset="0.0" stroke="red"/>
        </g>
        <g latexdraw:type="rectangle" id="id1468398651">
            <rect x="544.2411125932163" y="162.72058606304236"
                width="8.9771251667363" height="40.399134311522744"
                latexdraw:borderPos="outer" stroke-width="2.0"
                stroke="black" fill="none" stroke-dasharray="8.819444444444445, 5.291666666666667"/>
        </g>
        <g latexdraw:type="text" id="id1680124963" fill="black" latexdraw:position="bl">
            <text x="564.8772794821984" y="187.3297359963476">${\mathbf x}_i'$</text>
        </g>
        <g latexdraw:type="text" id="id1558692209" fill="black" latexdraw:position="bl">
            <text x="333.0" y="249.0">$p$</text>
        </g>
        <g latexdraw:type="text" id="id202209269" fill="black" latexdraw:position="bl">
            <text x="264.0" y="280.0">EXPANSION</text>
        </g>
        <g latexdraw:type="text" id="id1721585176" fill="black" latexdraw:position="bl">
            <text x="459.0" y="280.0">PROJECTION</text>
        </g>
        <g latexdraw:type="joinedLines" id="id2107157025">
            <polyline
                points="595.9556144418684,179.51242133156666 654.589930440543,179.51242133156643 "
                stroke-width="2.0" stroke="black"
                stroke-dasharray="8.819444444444445, 5.291666666666667"
                latexdraw:rotationAngle="0.0" marker-end="url(#arrow1-2107157025)"/>
        </g>
        <g latexdraw:type="circle" id="id727444057">
            <circle cx="725.8717566523131" cy="183.44164734459537"
                r="71.7050899856464" latexdraw:borderPos="outer"
                stroke-width="2.0" stroke="black" fill="none"/>
        </g>
        <g latexdraw:type="akinPoints" id="id174501662"
            latexdraw:pathType="CURVES" latexdraw:interval="1" latexdraw:points="684.9147449038971 163.90250261855067 687.5283461340723 179.58401338258582 690.1419473642477 182.72031553539279 692.7555485944231 179.58401338258582 695.3691498245985 151.35729400732254 697.9827510547742 138.81208539609497 700.5963522849493 145.084689701709 703.2099535151249 157.62989831293737 705.8235547453002 173.3114090769722 708.4371559754753 179.58401338258582 711.0507572056513 185.85661768820017 713.6643584358264 188.99291984100677 716.2779596660021 185.85661768820017 718.8915608961775 179.58401338258582 721.5051621263528 141.9483875489019 724.1187633565285 138.81208539609497 726.7323645867039 141.9483875489019 729.3459658168791 154.49359616013004 731.9595670470547 179.58401338258582 734.57316827723 188.99291984100677 739.800370737581 185.85661768820017 742.4139719677563 141.9483875489019 745.0275731979318 138.81208539609497 747.6411744281072 141.9483875489019 750.2547756582824 145.084689701709 752.8683768884586 160.76620046574442 755.4819781186335 182.72031553539279 758.095579348809 188.99291984100677 ">
            <path
                d="M 684.9147449038971 163.90250261855067 L 686.2215455189847 171.74325800056823 C 686.8749458265286 175.66363569157704 688.1817464416162 180.36808892078756 688.83514674916 181.15216445898932 C 689.4885470567039 181.93623999719105 690.7953476717915 181.93623999719105 691.4487479793354 181.15216445898932 C 692.1021482868792 180.36808892078756 693.4089489019669 172.52733353877 694.0623492095108 165.4706536949542 C 694.7157495170546 158.41397385113837 696.0225501321424 148.22099185451566 696.6759504396864 145.08468970170875 C 697.3293507472304 141.94838754890185 698.6361513623181 140.3802364724985 699.2895516698618 141.948387548902 C 699.9429519774055 143.5165386253055 701.2497525924932 148.22099185451611 701.9031529000371 151.3572940073232 C 702.5565532075809 154.49359616013027 703.8633538226687 161.55027600394607 704.5167541302126 165.4706536949548 C 705.1701544377563 169.39103138596352 706.476955052844 174.87956015337562 707.1303553603877 176.44771122977903 C 707.7837556679315 178.01586230618244 709.0905562830194 181.15216445898943 709.7439565905634 182.720315535393 C 710.3973568981073 184.2884666117966 711.704157513195 186.64069322640182 712.3575578207389 187.42476876460347 C 713.0109581282827 188.20884430280512 714.3177587433704 188.20884430280512 714.9711590509143 187.42476876460347 C 715.6245593584581 186.64069322640182 716.9313599735459 184.2884666117966 717.5847602810898 182.720315535393 C 718.2381605886336 181.15216445898943 719.5449612037213 170.17510692416482 720.1983615112651 160.76620046574385 C 720.851761818809 151.35729400732288 722.1585624338968 141.16431201070017 722.8119627414407 140.38023647249844 C 723.4653630489845 139.5961609342967 724.7721636640723 139.5961609342967 725.4255639716162 140.38023647249844 C 726.07896427916 141.16431201070017 727.3857648942477 145.08468970170895 728.0391652017915 148.22099185451597 C 728.6925655093353 151.357294007323 729.999366124423 160.766200465744 730.6527664319669 167.03880477135795 C 731.3061667395109 173.31140907697187 732.6129673545986 181.93623999719108 733.2663676621423 184.2884666117963 C 733.9197679696862 186.64069322640154 735.8799688923177 188.20884430280512 737.1867695074055 187.42476876460347 C 738.4935701224933 186.64069322640182 740.4537710451249 174.87956015337562 741.1071713526687 163.90250261855104 C 741.7605716602125 152.92544508372646 743.0673722753002 141.16431201070017 743.7207725828441 140.38023647249844 C 744.374172890388 139.5961609342967 745.6809735054757 139.5961609342967 746.3343738130195 140.38023647249844 C 746.9877741205634 141.16431201070017 748.2945747356509 142.73246308710367 748.9479750431948 143.51653862530546 C 749.6013753507386 144.30061416350725 750.9081759658264 149.00506739271788 751.5615762733705 152.92544508372671 C 752.2149765809145 156.84582277473555 753.5217771960023 166.25472923315652 754.175177503546 171.7432580005686 C 754.8285778110898 177.23178676798068 756.1353784261773 184.28846661179628 756.7887787337213 185.85661768819978 "
                stroke-width="2.0" stroke="black" fill="none" latexdraw:rotationAngle="0.0"/>
        </g>
        <g latexdraw:type="dot" id="id1840564595"
            latexdraw:size="6.586275100042072" latexdraw:dotShape="*" latexdraw:position="757.0 180.0">
            <path
                d="M 760.0398192769425 180.0 C 760.0398192769425 181.678845828897 758.678845828897 183.0398192769425 757.0 183.0398192769425 C 755.321154171103 183.0398192769425 753.9601807230575 181.678845828897 753.9601807230575 180.0 C 753.9601807230575 178.321154171103 755.321154171103 176.9601807230575 757.0 176.9601807230575 C 758.678845828897 176.9601807230575 760.0398192769425 178.321154171103 760.0398192769425 180.0 z "
                fill="red" stroke-linecap="square"
                stroke-linejoin="butt" stroke-width="0.4116421937942505"
                stroke-miterlimit="10.0" stroke-dashoffset="0.0" stroke="red"/>
        </g>
        <g latexdraw:type="rectangle" id="id1587061318">
            <rect x="738.2411125932163" y="122.72058606304245"
                width="23.9771251667363" height="103.39913431152263"
                latexdraw:borderPos="outer" stroke-width="2.0"
                stroke="black" fill="none" stroke-dasharray="8.819444444444445, 5.291666666666667"/>
        </g>
        <g latexdraw:type="text" id="id1842645078" fill="black" latexdraw:position="bl">
            <text x="769.8772794821984" y="187.3297359963476">$\hat{{\mathbf x}}_i$</text>
        </g>
        <g latexdraw:type="akinPoints" id="id1743237751"
            latexdraw:pathType="CURVES" latexdraw:interval="1" latexdraw:points="684.9147449038971 200.47004500774352 688.9803468175033 179.77723209090203 693.0459487311092 165.9820234796739 697.1115506447155 159.0844191740598 701.1771525583216 172.8796277852876 705.242754471928 179.77723209090203 709.3083563855345 193.57244070212946 713.3739582991404 200.47004500774352 717.4395602127465 193.57244070212946 721.5051621263528 186.67483639651564 725.5707640399594 193.57244070212946 729.6363659535659 207.36764931335756 733.7019678671716 214.26525361897143 737.7675697807772 207.36764931335756 741.8331716943839 172.8796277852876 745.8987736079905 159.0844191740598 749.9643755215968 193.57244070212946 754.0299774352027 214.26525361897143 758.095579348809 193.57244070212946 ">
            <path
                d="M 684.9147449038971 200.47004500774352 L 686.9475458607003 190.12363854932278 C 687.9639463391018 184.9504353201124 689.9967472959048 176.32842993809498 691.0131477743063 172.87962778528797 C 692.0295482527077 169.43082563248095 694.0623492095108 164.25762240327037 695.0787496879124 162.53322132686685 C 696.0951501663139 160.80882025046333 698.1279511231171 162.53322132686674 699.1443516015186 165.9820234796737 C 700.16075207992 169.43082563248066 702.1935530367232 174.6040288616912 703.2099535151249 176.3284299380948 C 704.2263539935265 178.05283101449842 706.2591549503296 183.22603424370888 707.2755554287312 186.67483639651573 C 708.2919559071329 190.1236385493226 710.324756863936 195.29684177853295 711.3411573423375 197.02124285493647 C 712.357557820739 198.74564393134 714.3903587775419 198.74564393134 715.4067592559435 197.02124285493647 C 716.4231597343451 195.29684177853295 718.4559606911481 191.84803962572602 719.4723611695497 190.12363854932255 C 720.4887616479513 188.39923747291908 722.5215626047545 188.39923747291908 723.5379630831561 190.12363854932255 C 724.5543635615577 191.84803962572602 726.5871645183611 197.02124285493647 727.6035649967627 200.47004500774352 C 728.6199654751642 203.91884716055054 730.6527664319674 209.09205038976103 731.6691669103687 210.8164514661645 C 732.6855673887701 212.54085254256796 734.718368345573 212.54085254256796 735.7347688239744 210.8164514661645 C 736.7511693023757 209.09205038976103 738.7839702591789 198.74564393134006 739.8003707375806 190.12363854932258 C 740.8167712159823 181.5016331673051 742.8495721727854 169.43082563248066 743.8659726511871 165.9820234796737 C 744.8823731295888 162.53322132686674 746.9151740863921 167.70642455607722 747.9315745647937 176.32842993809464 C 748.9479750431952 184.95043532011204 750.9807759999983 198.74564393133994 751.9971764783998 203.91884716055046 C 753.0135769568012 209.09205038976094 755.0463779136043 209.09205038976094 756.0627783920058 203.91884716055046 "
                stroke-width="2.0" stroke="black" fill="none" latexdraw:rotationAngle="0.0"/>
        </g>
        <g latexdraw:type="dot" id="id1013527302"
            latexdraw:size="6.586275100042072" latexdraw:dotShape="*" latexdraw:position="758.0 205.0">
            <path
                d="M 761.0398192769425 205.0 C 761.0398192769425 206.678845828897 759.678845828897 208.0398192769425 758.0 208.0398192769425 C 756.321154171103 208.0398192769425 754.9601807230575 206.678845828897 754.9601807230575 205.0 C 754.9601807230575 203.321154171103 756.321154171103 201.9601807230575 758.0 201.9601807230575 C 759.678845828897 201.9601807230575 761.0398192769425 203.321154171103 761.0398192769425 205.0 z "
                fill="red" stroke-linecap="square"
                stroke-linejoin="butt" stroke-width="0.4116421937942505"
                stroke-miterlimit="10.0" stroke-dashoffset="0.0" stroke="red"/>
        </g>
        <g latexdraw:type="text" id="id597079164" fill="black" latexdraw:position="bl">
            <text x="745.0" y="240.0">$p$</text>
        </g>
        <g latexdraw:type="text" id="id141784192" fill="black" latexdraw:position="bl">
            <text x="641.0" y="279.0">RECONSTRUCTION</text>
        </g>
    </g>
    <defs>
        <marker overflow="visible" orient="auto" id="arrow1-438171398">
            <path
                d="M 0.0 0.0 L -7.126750000000001 2.4575000000000005 L -7.126750000000001 0.0 L -7.126750000000001 -2.4575000000000005 z "
                latexdraw:arrSizeNum="2.0900000000000003" fill="black"/>
        </marker>
        <marker overflow="visible" orient="auto" id="arrow1-354389888">
            <path
                d="M 0.0 0.0 L -7.126750000000001 2.4575000000000005 L -7.126750000000001 0.0 L -7.126750000000001 -2.4575000000000005 z "
                latexdraw:arrSizeNum="2.0900000000000003" fill="black"/>
        </marker>
        <marker overflow="visible" orient="auto" id="arrow1-1615930638">
            <path
                d="M 0.0 0.0 L -7.126750000000001 2.4575000000000005 L -7.126750000000001 0.0 L -7.126750000000001 -2.4575000000000005 z "
                latexdraw:arrSizeNum="2.0900000000000003" fill="black"/>
        </marker>
        <marker overflow="visible" orient="auto" id="arrow1-2107157025">
            <path
                d="M 0.0 0.0 L -7.126750000000001 2.4575000000000005 L -7.126750000000001 0.0 L -7.126750000000001 -2.4575000000000005 z "
                latexdraw:arrSizeNum="2.0900000000000003" fill="black"/>
        </marker>
    </defs>
    <metadata>
        <latexdraw:metadata>
            <latexdraw:latexIncludes/>
            <latexdraw:displayXScale>true</latexdraw:displayXScale>
            <latexdraw:displayYScale>true</latexdraw:displayYScale>
            <latexdraw:unit>CM</latexdraw:unit>
            <latexdraw:zoom>1.0</latexdraw:zoom>
            <latexdraw:magneticGridStyle>CUSTOMISED</latexdraw:magneticGridStyle>
            <latexdraw:gridGap>20</latexdraw:gridGap>
            <latexdraw:magneticGrid>false</latexdraw:magneticGrid>
            <latexdraw:version>3.3.8</latexdraw:version>
            <latexdraw:size>
                <latexdraw:width>1309</latexdraw:width>
                <latexdraw:height>768</latexdraw:height>
            </latexdraw:size>
            <latexdraw:position>
                <latexdraw:x>65.0</latexdraw:x>
                <latexdraw:y>0.0</latexdraw:y>
            </latexdraw:position>
        </latexdraw:metadata>
    </metadata>
</svg>
