<?xml version="1.1" encoding="windows-1252"?>
<svg xmlns="http://www.w3.org/2000/svg"
    xmlns:latexdraw="http://latexdraw.sourceforge.net/namespaces/latexdraw"
    version="1.1" baseProfile="full">
    <g>
        <g id="id731618994" latexdraw:type="grid"
            latexdraw:XLabelsSouth="true" latexdraw:YLabelsWest="true"
            latexdraw:gridUnit="1.9993495599061393"
            latexdraw:gridEnd="2.0 2.0" latexdraw:gridStart="0.0 0.0"
            latexdraw:origin="0.0 0.0" transform="translate(740.0 319.9349559906145)">
            <g stroke-width="0.7055555555555556" stroke="gray"
                stroke-linecap="round" latexdraw:type="subGrid"
                latexdraw:gridDots="0" latexdraw:subDiv="5.0">
                <line x1="0.0" x2="0.0" y1="0.0" y2="-199.93495599061393"/>
                <line x1="19.993495599061394" x2="19.993495599061394"
                    y1="0.0" y2="-199.93495599061393"/>
                <line x1="39.98699119812279" x2="39.98699119812279"
                    y1="0.0" y2="-199.93495599061393"/>
                <line x1="59.980486797184184" x2="59.980486797184184"
                    y1="0.0" y2="-199.93495599061393"/>
                <line x1="79.97398239624557" x2="79.97398239624557"
                    y1="0.0" y2="-199.93495599061393"/>
                <line x1="99.96747799530696" x2="99.96747799530696"
                    y1="0.0" y2="-199.93495599061393"/>
                <line x1="99.96747799530696" x2="99.96747799530696"
                    y1="0.0" y2="-199.93495599061393"/>
                <line x1="119.96097359436835" x2="119.96097359436835"
                    y1="0.0" y2="-199.93495599061393"/>
                <line x1="139.95446919342976" x2="139.95446919342976"
                    y1="0.0" y2="-199.93495599061393"/>
                <line x1="159.94796479249115" x2="159.94796479249115"
                    y1="0.0" y2="-199.93495599061393"/>
                <line x1="179.94146039155254" x2="179.94146039155254"
                    y1="0.0" y2="-199.93495599061393"/>
                <line x1="199.93495599061393" x2="199.93495599061393"
                    y1="0.0" y2="-199.93495599061393"/>
                <line x1="0.0" x2="199.93495599061396" y1="-0.0" y2="-0.0"/>
                <line x1="0.0" x2="199.93495599061396"
                    y1="-19.993495599061394" y2="-19.993495599061394"/>
                <line x1="0.0" x2="199.93495599061396"
                    y1="-39.98699119812279" y2="-39.98699119812279"/>
                <line x1="0.0" x2="199.93495599061396"
                    y1="-59.980486797184184" y2="-59.980486797184184"/>
                <line x1="0.0" x2="199.93495599061396"
                    y1="-79.97398239624557" y2="-79.97398239624557"/>
                <line x1="0.0" x2="199.93495599061396"
                    y1="-99.96747799530696" y2="-99.96747799530696"/>
                <line x1="0.0" x2="199.93495599061396"
                    y1="-99.96747799530696" y2="-99.96747799530696"/>
                <line x1="0.0" x2="199.93495599061396"
                    y1="-119.96097359436835" y2="-119.96097359436835"/>
                <line x1="0.0" x2="199.93495599061396"
                    y1="-139.95446919342976" y2="-139.95446919342976"/>
                <line x1="0.0" x2="199.93495599061396"
                    y1="-159.94796479249115" y2="-159.94796479249115"/>
                <line x1="0.0" x2="199.93495599061396"
                    y1="-179.94146039155254" y2="-179.94146039155254"/>
                <line x1="0.0" x2="199.93495599061396"
                    y1="-199.93495599061393" y2="-199.93495599061393"/>
            </g>
            <g stroke-width="1.4111111111111112" stroke="black"
                stroke-linecap="square" latexdraw:type="grid">
                <line x1="0.0" x2="0.0" y1="0.0" y2="-199.93495599061393"/>
                <line x1="99.96747799530696" x2="99.96747799530696"
                    y1="0.0" y2="-199.93495599061393"/>
                <line x1="199.93495599061393" x2="199.93495599061393"
                    y1="0.0" y2="-199.93495599061393"/>
                <line x1="0.0" x2="199.93495599061396" y1="-0.0" y2="-0.0"/>
                <line x1="0.0" x2="199.93495599061396"
                    y1="-99.96747799530696" y2="-99.96747799530696"/>
                <line x1="0.0" x2="199.93495599061396"
                    y1="-199.93495599061393" y2="-199.93495599061393"/>
            </g>
        </g>
        <g id="id200871835" latexdraw:type="grid"
            latexdraw:XLabelsSouth="true" latexdraw:YLabelsWest="true"
            latexdraw:gridUnit="1.9993495599061393"
            latexdraw:gridEnd="2.0 2.0" latexdraw:gridStart="0.0 0.0"
            latexdraw:origin="0.0 0.0" transform="translate(460.0 319.9349559906145)">
            <g stroke-width="0.7055555555555556" stroke="gray"
                stroke-linecap="round" latexdraw:type="subGrid"
                latexdraw:gridDots="0" latexdraw:subDiv="5.0">
                <line x1="0.0" x2="0.0" y1="0.0" y2="-199.93495599061393"/>
                <line x1="19.993495599061394" x2="19.993495599061394"
                    y1="0.0" y2="-199.93495599061393"/>
                <line x1="39.98699119812279" x2="39.98699119812279"
                    y1="0.0" y2="-199.93495599061393"/>
                <line x1="59.980486797184184" x2="59.980486797184184"
                    y1="0.0" y2="-199.93495599061393"/>
                <line x1="79.97398239624557" x2="79.97398239624557"
                    y1="0.0" y2="-199.93495599061393"/>
                <line x1="99.96747799530696" x2="99.96747799530696"
                    y1="0.0" y2="-199.93495599061393"/>
                <line x1="99.96747799530696" x2="99.96747799530696"
                    y1="0.0" y2="-199.93495599061393"/>
                <line x1="119.96097359436835" x2="119.96097359436835"
                    y1="0.0" y2="-199.93495599061393"/>
                <line x1="139.95446919342976" x2="139.95446919342976"
                    y1="0.0" y2="-199.93495599061393"/>
                <line x1="159.94796479249115" x2="159.94796479249115"
                    y1="0.0" y2="-199.93495599061393"/>
                <line x1="179.94146039155254" x2="179.94146039155254"
                    y1="0.0" y2="-199.93495599061393"/>
                <line x1="199.93495599061393" x2="199.93495599061393"
                    y1="0.0" y2="-199.93495599061393"/>
                <line x1="0.0" x2="199.93495599061396" y1="-0.0" y2="-0.0"/>
                <line x1="0.0" x2="199.93495599061396"
                    y1="-19.993495599061394" y2="-19.993495599061394"/>
                <line x1="0.0" x2="199.93495599061396"
                    y1="-39.98699119812279" y2="-39.98699119812279"/>
                <line x1="0.0" x2="199.93495599061396"
                    y1="-59.980486797184184" y2="-59.980486797184184"/>
                <line x1="0.0" x2="199.93495599061396"
                    y1="-79.97398239624557" y2="-79.97398239624557"/>
                <line x1="0.0" x2="199.93495599061396"
                    y1="-99.96747799530696" y2="-99.96747799530696"/>
                <line x1="0.0" x2="199.93495599061396"
                    y1="-99.96747799530696" y2="-99.96747799530696"/>
                <line x1="0.0" x2="199.93495599061396"
                    y1="-119.96097359436835" y2="-119.96097359436835"/>
                <line x1="0.0" x2="199.93495599061396"
                    y1="-139.95446919342976" y2="-139.95446919342976"/>
                <line x1="0.0" x2="199.93495599061396"
                    y1="-159.94796479249115" y2="-159.94796479249115"/>
                <line x1="0.0" x2="199.93495599061396"
                    y1="-179.94146039155254" y2="-179.94146039155254"/>
                <line x1="0.0" x2="199.93495599061396"
                    y1="-199.93495599061393" y2="-199.93495599061393"/>
            </g>
            <g stroke-width="1.4111111111111112" stroke="black"
                stroke-linecap="square" latexdraw:type="grid">
                <line x1="0.0" x2="0.0" y1="0.0" y2="-199.93495599061393"/>
                <line x1="99.96747799530696" x2="99.96747799530696"
                    y1="0.0" y2="-199.93495599061393"/>
                <line x1="199.93495599061393" x2="199.93495599061393"
                    y1="0.0" y2="-199.93495599061393"/>
                <line x1="0.0" x2="199.93495599061396" y1="-0.0" y2="-0.0"/>
                <line x1="0.0" x2="199.93495599061396"
                    y1="-99.96747799530696" y2="-99.96747799530696"/>
                <line x1="0.0" x2="199.93495599061396"
                    y1="-199.93495599061393" y2="-199.93495599061393"/>
            </g>
        </g>
        <g latexdraw:type="text" id="id228249228" fill="black" latexdraw:position="bl">
            <text x="796.6666666666665" y="185.0">$\mathbf{w}_2$</text>
        </g>
        <g latexdraw:type="text" id="id1388691916" fill="black" latexdraw:position="bl">
            <text x="911.6666666666664" y="138.3333333333332">$\mathbf{w}_1$</text>
        </g>
        <g latexdraw:type="dot" id="id626112838" latexdraw:size="10.0"
            latexdraw:dotShape="*" latexdraw:position="830.8333333333334 208.33333333333337">
            <path
                d="M 835.448717948718 208.33333333333337 C 835.448717948718 210.88233987101395 833.382339871014 212.94871794871798 830.8333333333334 212.94871794871798 C 828.2843267956528 212.94871794871798 826.2179487179487 210.88233987101395 826.2179487179487 208.33333333333337 C 826.2179487179487 205.7843267956528 828.2843267956528 203.71794871794876 830.8333333333334 203.71794871794876 C 833.382339871014 203.71794871794876 835.448717948718 205.7843267956528 835.448717948718 208.33333333333337 z "
                fill="black" stroke-linecap="square"
                stroke-linejoin="butt" stroke-width="0.625"
                stroke-miterlimit="10.0" stroke-dashoffset="0.0" stroke="black"/>
        </g>
        <g latexdraw:type="dot" id="id469149183" latexdraw:size="10.0"
            latexdraw:dotShape="*" latexdraw:position="859.1666666666669 250.00000000000034">
            <path
                d="M 863.7820512820515 250.00000000000034 C 863.7820512820515 252.54900653768092 861.7156732043475 254.61538461538495 859.1666666666669 254.61538461538495 C 856.6176601289862 254.61538461538495 854.5512820512822 252.54900653768092 854.5512820512822 250.00000000000034 C 854.5512820512822 247.45099346231976 856.6176601289862 245.38461538461573 859.1666666666669 245.38461538461573 C 861.7156732043475 245.38461538461573 863.7820512820515 247.45099346231976 863.7820512820515 250.00000000000034 z "
                fill="black" stroke-linecap="square"
                stroke-linejoin="butt" stroke-width="0.625"
                stroke-miterlimit="10.0" stroke-dashoffset="0.0" stroke="black"/>
        </g>
        <g latexdraw:type="joinedLines" id="id156523415">
            <polyline
                points="860.8333333333333,237.4999999999999 810.8333333333333,187.4999999999999 "
                stroke-width="2.0" stroke="black"
                latexdraw:rotationAngle="0.0" marker-end="url(#arrow1-156523415)"/>
        </g>
        <g latexdraw:type="joinedLines" id="id2001184858">
            <polyline points="760.0,300.0 920.0,140.0 "
                stroke-width="2.0" stroke="black"
                latexdraw:rotationAngle="0.0" marker-end="url(#arrow1-2001184858)"/>
        </g>
        <g latexdraw:type="dot" id="id1245906149" latexdraw:size="10.0"
            latexdraw:dotShape="*" latexdraw:position="875.0 138.33333333333334">
            <path
                d="M 879.6153846153846 138.33333333333334 C 879.6153846153846 140.88233987101393 877.5490065376806 142.94871794871796 875.0 142.94871794871796 C 872.4509934623194 142.94871794871796 870.3846153846154 140.88233987101393 870.3846153846154 138.33333333333334 C 870.3846153846154 135.78432679565276 872.4509934623194 133.71794871794873 875.0 133.71794871794873 C 877.5490065376806 133.71794871794873 879.6153846153846 135.78432679565276 879.6153846153846 138.33333333333334 z "
                fill="red" stroke-linecap="square"
                stroke-linejoin="butt" stroke-width="0.625"
                stroke-miterlimit="10.0" stroke-dashoffset="0.0" stroke="red"/>
        </g>
        <g latexdraw:type="dot" id="id1458119366" latexdraw:size="10.0"
            latexdraw:dotShape="*" latexdraw:position="878.3333333333334 173.33333333333337">
            <path
                d="M 882.948717948718 173.33333333333337 C 882.948717948718 175.88233987101395 880.882339871014 177.94871794871798 878.3333333333334 177.94871794871798 C 875.7843267956528 177.94871794871798 873.7179487179487 175.88233987101395 873.7179487179487 173.33333333333337 C 873.7179487179487 170.7843267956528 875.7843267956528 168.71794871794876 878.3333333333334 168.71794871794876 C 880.882339871014 168.71794871794876 882.948717948718 170.7843267956528 882.948717948718 173.33333333333337 z "
                fill="black" stroke-linecap="square"
                stroke-linejoin="butt" stroke-width="0.625"
                stroke-miterlimit="10.0" stroke-dashoffset="0.0" stroke="black"/>
        </g>
        <g latexdraw:type="dot" id="id1723863146" latexdraw:size="10.0"
            latexdraw:dotShape="*" latexdraw:position="846.6666666666667 176.66666666666669">
            <path
                d="M 851.2820512820514 176.66666666666669 C 851.2820512820514 179.21567320434727 849.2156732043474 181.2820512820513 846.6666666666667 181.2820512820513 C 844.1176601289861 181.2820512820513 842.0512820512821 179.21567320434727 842.0512820512821 176.66666666666669 C 842.0512820512821 174.1176601289861 844.1176601289861 172.05128205128207 846.6666666666667 172.05128205128207 C 849.2156732043474 172.05128205128207 851.2820512820514 174.1176601289861 851.2820512820514 176.66666666666669 z "
                fill="black" stroke-linecap="square"
                stroke-linejoin="butt" stroke-width="0.625"
                stroke-miterlimit="10.0" stroke-dashoffset="0.0" stroke="black"/>
        </g>
        <g latexdraw:type="dot" id="id1464558047" latexdraw:size="10.0"
            latexdraw:dotShape="*" latexdraw:position="878.3333333333334 200.0">
            <path
                d="M 882.948717948718 200.0 C 882.948717948718 202.54900653768058 880.882339871014 204.6153846153846 878.3333333333334 204.6153846153846 C 875.7843267956528 204.6153846153846 873.7179487179487 202.54900653768058 873.7179487179487 200.0 C 873.7179487179487 197.45099346231942 875.7843267956528 195.3846153846154 878.3333333333334 195.3846153846154 C 880.882339871014 195.3846153846154 882.948717948718 197.45099346231942 882.948717948718 200.0 z "
                fill="black" stroke-linecap="square"
                stroke-linejoin="butt" stroke-width="0.625"
                stroke-miterlimit="10.0" stroke-dashoffset="0.0" stroke="black"/>
        </g>
        <g latexdraw:type="dot" id="id930038718" latexdraw:size="10.0"
            latexdraw:dotShape="*" latexdraw:position="808.3333333333334 273.33333333333337">
            <path
                d="M 812.948717948718 273.33333333333337 C 812.948717948718 275.8823398710139 810.882339871014 277.94871794871796 808.3333333333334 277.94871794871796 C 805.7843267956528 277.94871794871796 803.7179487179487 275.8823398710139 803.7179487179487 273.33333333333337 C 803.7179487179487 270.78432679565276 805.7843267956528 268.71794871794873 808.3333333333334 268.71794871794873 C 810.882339871014 268.71794871794873 812.948717948718 270.78432679565276 812.948717948718 273.33333333333337 z "
                fill="black" stroke-linecap="square"
                stroke-linejoin="butt" stroke-width="0.625"
                stroke-miterlimit="10.0" stroke-dashoffset="0.0" stroke="black"/>
        </g>
        <g latexdraw:type="dot" id="id791800593" latexdraw:size="10.0"
            latexdraw:dotShape="*" latexdraw:position="825.0 243.33333333333337">
            <path
                d="M 829.6153846153846 243.33333333333337 C 829.6153846153846 245.88233987101395 827.5490065376806 247.94871794871798 825.0 247.94871794871798 C 822.4509934623194 247.94871794871798 820.3846153846154 245.88233987101395 820.3846153846154 243.33333333333337 C 820.3846153846154 240.7843267956528 822.4509934623194 238.71794871794876 825.0 238.71794871794876 C 827.5490065376806 238.71794871794876 829.6153846153846 240.7843267956528 829.6153846153846 243.33333333333337 z "
                fill="black" stroke-linecap="square"
                stroke-linejoin="butt" stroke-width="0.625"
                stroke-miterlimit="10.0" stroke-dashoffset="0.0" stroke="black"/>
        </g>
        <g latexdraw:type="dot" id="id1636964336" latexdraw:size="10.0"
            latexdraw:dotShape="*" latexdraw:position="851.6666666666667 200.0">
            <path
                d="M 856.2820512820514 200.0 C 856.2820512820514 202.54900653768058 854.2156732043474 204.6153846153846 851.6666666666667 204.6153846153846 C 849.1176601289861 204.6153846153846 847.0512820512821 202.54900653768058 847.0512820512821 200.0 C 847.0512820512821 197.45099346231942 849.1176601289861 195.3846153846154 851.6666666666667 195.3846153846154 C 854.2156732043474 195.3846153846154 856.2820512820514 197.45099346231942 856.2820512820514 200.0 z "
                fill="black" stroke-linecap="square"
                stroke-linejoin="butt" stroke-width="0.625"
                stroke-miterlimit="10.0" stroke-dashoffset="0.0" stroke="black"/>
        </g>
        <g latexdraw:type="dot" id="id601396121" latexdraw:size="10.0"
            latexdraw:dotShape="*" latexdraw:position="840.0 223.33333333333337">
            <path
                d="M 844.6153846153846 223.33333333333337 C 844.6153846153846 225.88233987101395 842.5490065376806 227.94871794871798 840.0 227.94871794871798 C 837.4509934623194 227.94871794871798 835.3846153846154 225.88233987101395 835.3846153846154 223.33333333333337 C 835.3846153846154 220.7843267956528 837.4509934623194 218.71794871794876 840.0 218.71794871794876 C 842.5490065376806 218.71794871794876 844.6153846153846 220.7843267956528 844.6153846153846 223.33333333333337 z "
                fill="black" stroke-linecap="square"
                stroke-linejoin="butt" stroke-width="0.625"
                stroke-miterlimit="10.0" stroke-dashoffset="0.0" stroke="black"/>
        </g>
        <g latexdraw:type="dot" id="id284165211" latexdraw:size="10.0"
            latexdraw:dotShape="*" latexdraw:position="808.3333333333334 228.33333333333337">
            <path
                d="M 812.948717948718 228.33333333333337 C 812.948717948718 230.88233987101395 810.882339871014 232.94871794871798 808.3333333333334 232.94871794871798 C 805.7843267956528 232.94871794871798 803.7179487179487 230.88233987101395 803.7179487179487 228.33333333333337 C 803.7179487179487 225.7843267956528 805.7843267956528 223.71794871794876 808.3333333333334 223.71794871794876 C 810.882339871014 223.71794871794876 812.948717948718 225.7843267956528 812.948717948718 228.33333333333337 z "
                fill="black" stroke-linecap="square"
                stroke-linejoin="butt" stroke-width="0.625"
                stroke-miterlimit="10.0" stroke-dashoffset="0.0" stroke="black"/>
        </g>
        <g latexdraw:type="dot" id="id2013365819" latexdraw:size="10.0"
            latexdraw:dotShape="*" latexdraw:position="796.6666666666667 255.0">
            <path
                d="M 801.2820512820514 255.0 C 801.2820512820514 257.5490065376806 799.2156732043474 259.61538461538464 796.6666666666667 259.61538461538464 C 794.1176601289861 259.61538461538464 792.0512820512821 257.5490065376806 792.0512820512821 255.0 C 792.0512820512821 252.45099346231942 794.1176601289861 250.3846153846154 796.6666666666667 250.3846153846154 C 799.2156732043474 250.3846153846154 801.2820512820514 252.45099346231942 801.2820512820514 255.0 z "
                fill="black" stroke-linecap="square"
                stroke-linejoin="butt" stroke-width="0.625"
                stroke-miterlimit="10.0" stroke-dashoffset="0.0" stroke="black"/>
        </g>
        <g latexdraw:type="dot" id="id1828441816" latexdraw:size="10.0"
            latexdraw:dotShape="*" latexdraw:position="781.6666666666667 283.33333333333337">
            <path
                d="M 786.2820512820514 283.33333333333337 C 786.2820512820514 285.8823398710139 784.2156732043474 287.94871794871796 781.6666666666667 287.94871794871796 C 779.1176601289861 287.94871794871796 777.0512820512821 285.8823398710139 777.0512820512821 283.33333333333337 C 777.0512820512821 280.78432679565276 779.1176601289861 278.71794871794873 781.6666666666667 278.71794871794873 C 784.2156732043474 278.71794871794873 786.2820512820514 280.78432679565276 786.2820512820514 283.33333333333337 z "
                fill="black" stroke-linecap="square"
                stroke-linejoin="butt" stroke-width="0.625"
                stroke-miterlimit="10.0" stroke-dashoffset="0.0" stroke="black"/>
        </g>
        <g latexdraw:type="text" id="id557022082" fill="black" latexdraw:position="bl">
            <text x="516.6666666666665" y="185.0">$\mathbf{w}_2$</text>
        </g>
        <g latexdraw:type="text" id="id1650647592" fill="black" latexdraw:position="bl">
            <text x="631.6666666666664" y="138.3333333333332">$\mathbf{w}_1$</text>
        </g>
        <g latexdraw:type="dot" id="id1149986832" latexdraw:size="10.0"
            latexdraw:dotShape="*" latexdraw:position="550.8333333333334 208.33333333333337">
            <path
                d="M 555.448717948718 208.33333333333337 C 555.448717948718 210.88233987101395 553.382339871014 212.94871794871798 550.8333333333334 212.94871794871798 C 548.2843267956528 212.94871794871798 546.2179487179487 210.88233987101395 546.2179487179487 208.33333333333337 C 546.2179487179487 205.7843267956528 548.2843267956528 203.71794871794876 550.8333333333334 203.71794871794876 C 553.382339871014 203.71794871794876 555.448717948718 205.7843267956528 555.448717948718 208.33333333333337 z "
                fill="black" stroke-linecap="square"
                stroke-linejoin="butt" stroke-width="0.625"
                stroke-miterlimit="10.0" stroke-dashoffset="0.0" stroke="black"/>
        </g>
        <g latexdraw:type="dot" id="id180746413" latexdraw:size="10.0"
            latexdraw:dotShape="*" latexdraw:position="579.1666666666669 250.00000000000034">
            <path
                d="M 583.7820512820515 250.00000000000034 C 583.7820512820515 252.54900653768092 581.7156732043475 254.61538461538495 579.1666666666669 254.61538461538495 C 576.6176601289862 254.61538461538495 574.5512820512822 252.54900653768092 574.5512820512822 250.00000000000034 C 574.5512820512822 247.45099346231976 576.6176601289862 245.38461538461573 579.1666666666669 245.38461538461573 C 581.7156732043475 245.38461538461573 583.7820512820515 247.45099346231976 583.7820512820515 250.00000000000034 z "
                fill="black" stroke-linecap="square"
                stroke-linejoin="butt" stroke-width="0.625"
                stroke-miterlimit="10.0" stroke-dashoffset="0.0" stroke="black"/>
        </g>
        <g latexdraw:type="joinedLines" id="id1612121215">
            <polyline
                points="580.8333333333333,237.4999999999999 530.8333333333333,187.4999999999999 "
                stroke-width="2.0" stroke="black"
                latexdraw:rotationAngle="0.0" marker-end="url(#arrow1-1612121215)"/>
        </g>
        <g latexdraw:type="joinedLines" id="id1279708336">
            <polyline points="480.0,300.0 640.0,140.0 "
                stroke-width="2.0" stroke="black"
                latexdraw:rotationAngle="0.0" marker-end="url(#arrow1-1279708336)"/>
        </g>
        <g latexdraw:type="dot" id="id1926027344" latexdraw:size="10.0"
            latexdraw:dotShape="*" latexdraw:position="595.0 138.33333333333334">
            <path
                d="M 599.6153846153846 138.33333333333334 C 599.6153846153846 140.88233987101393 597.5490065376806 142.94871794871796 595.0 142.94871794871796 C 592.4509934623194 142.94871794871796 590.3846153846154 140.88233987101393 590.3846153846154 138.33333333333334 C 590.3846153846154 135.78432679565276 592.4509934623194 133.71794871794873 595.0 133.71794871794873 C 597.5490065376806 133.71794871794873 599.6153846153846 135.78432679565276 599.6153846153846 138.33333333333334 z "
                fill="red" stroke-linecap="square"
                stroke-linejoin="butt" stroke-width="0.625"
                stroke-miterlimit="10.0" stroke-dashoffset="0.0" stroke="red"/>
        </g>
        <g latexdraw:type="dot" id="id2072546999" latexdraw:size="10.0"
            latexdraw:dotShape="*" latexdraw:position="598.3333333333334 173.33333333333337">
            <path
                d="M 602.948717948718 173.33333333333337 C 602.948717948718 175.88233987101395 600.882339871014 177.94871794871798 598.3333333333334 177.94871794871798 C 595.7843267956528 177.94871794871798 593.7179487179487 175.88233987101395 593.7179487179487 173.33333333333337 C 593.7179487179487 170.7843267956528 595.7843267956528 168.71794871794876 598.3333333333334 168.71794871794876 C 600.882339871014 168.71794871794876 602.948717948718 170.7843267956528 602.948717948718 173.33333333333337 z "
                fill="black" stroke-linecap="square"
                stroke-linejoin="butt" stroke-width="0.625"
                stroke-miterlimit="10.0" stroke-dashoffset="0.0" stroke="black"/>
        </g>
        <g latexdraw:type="dot" id="id1161067585" latexdraw:size="10.0"
            latexdraw:dotShape="*" latexdraw:position="566.6666666666667 176.66666666666669">
            <path
                d="M 571.2820512820514 176.66666666666669 C 571.2820512820514 179.21567320434727 569.2156732043474 181.2820512820513 566.6666666666667 181.2820512820513 C 564.1176601289861 181.2820512820513 562.0512820512821 179.21567320434727 562.0512820512821 176.66666666666669 C 562.0512820512821 174.1176601289861 564.1176601289861 172.05128205128207 566.6666666666667 172.05128205128207 C 569.2156732043474 172.05128205128207 571.2820512820514 174.1176601289861 571.2820512820514 176.66666666666669 z "
                fill="black" stroke-linecap="square"
                stroke-linejoin="butt" stroke-width="0.625"
                stroke-miterlimit="10.0" stroke-dashoffset="0.0" stroke="black"/>
        </g>
        <g latexdraw:type="dot" id="id1956779282" latexdraw:size="10.0"
            latexdraw:dotShape="*" latexdraw:position="598.3333333333334 200.0">
            <path
                d="M 602.948717948718 200.0 C 602.948717948718 202.54900653768058 600.882339871014 204.6153846153846 598.3333333333334 204.6153846153846 C 595.7843267956528 204.6153846153846 593.7179487179487 202.54900653768058 593.7179487179487 200.0 C 593.7179487179487 197.45099346231942 595.7843267956528 195.3846153846154 598.3333333333334 195.3846153846154 C 600.882339871014 195.3846153846154 602.948717948718 197.45099346231942 602.948717948718 200.0 z "
                fill="black" stroke-linecap="square"
                stroke-linejoin="butt" stroke-width="0.625"
                stroke-miterlimit="10.0" stroke-dashoffset="0.0" stroke="black"/>
        </g>
        <g latexdraw:type="dot" id="id840916634" latexdraw:size="10.0"
            latexdraw:dotShape="*" latexdraw:position="528.3333333333334 273.33333333333337">
            <path
                d="M 532.948717948718 273.33333333333337 C 532.948717948718 275.8823398710139 530.882339871014 277.94871794871796 528.3333333333334 277.94871794871796 C 525.7843267956528 277.94871794871796 523.7179487179487 275.8823398710139 523.7179487179487 273.33333333333337 C 523.7179487179487 270.78432679565276 525.7843267956528 268.71794871794873 528.3333333333334 268.71794871794873 C 530.882339871014 268.71794871794873 532.948717948718 270.78432679565276 532.948717948718 273.33333333333337 z "
                fill="black" stroke-linecap="square"
                stroke-linejoin="butt" stroke-width="0.625"
                stroke-miterlimit="10.0" stroke-dashoffset="0.0" stroke="black"/>
        </g>
        <g latexdraw:type="dot" id="id459516031" latexdraw:size="10.0"
            latexdraw:dotShape="*" latexdraw:position="545.0 243.33333333333337">
            <path
                d="M 549.6153846153846 243.33333333333337 C 549.6153846153846 245.88233987101395 547.5490065376806 247.94871794871798 545.0 247.94871794871798 C 542.4509934623194 247.94871794871798 540.3846153846154 245.88233987101395 540.3846153846154 243.33333333333337 C 540.3846153846154 240.7843267956528 542.4509934623194 238.71794871794876 545.0 238.71794871794876 C 547.5490065376806 238.71794871794876 549.6153846153846 240.7843267956528 549.6153846153846 243.33333333333337 z "
                fill="black" stroke-linecap="square"
                stroke-linejoin="butt" stroke-width="0.625"
                stroke-miterlimit="10.0" stroke-dashoffset="0.0" stroke="black"/>
        </g>
        <g latexdraw:type="dot" id="id2020995217" latexdraw:size="10.0"
            latexdraw:dotShape="*" latexdraw:position="571.6666666666667 200.0">
            <path
                d="M 576.2820512820514 200.0 C 576.2820512820514 202.54900653768058 574.2156732043474 204.6153846153846 571.6666666666667 204.6153846153846 C 569.1176601289861 204.6153846153846 567.0512820512821 202.54900653768058 567.0512820512821 200.0 C 567.0512820512821 197.45099346231942 569.1176601289861 195.3846153846154 571.6666666666667 195.3846153846154 C 574.2156732043474 195.3846153846154 576.2820512820514 197.45099346231942 576.2820512820514 200.0 z "
                fill="black" stroke-linecap="square"
                stroke-linejoin="butt" stroke-width="0.625"
                stroke-miterlimit="10.0" stroke-dashoffset="0.0" stroke="black"/>
        </g>
        <g latexdraw:type="dot" id="id1745399708" latexdraw:size="10.0"
            latexdraw:dotShape="*" latexdraw:position="560.0 223.33333333333337">
            <path
                d="M 564.6153846153846 223.33333333333337 C 564.6153846153846 225.88233987101395 562.5490065376806 227.94871794871798 560.0 227.94871794871798 C 557.4509934623194 227.94871794871798 555.3846153846154 225.88233987101395 555.3846153846154 223.33333333333337 C 555.3846153846154 220.7843267956528 557.4509934623194 218.71794871794876 560.0 218.71794871794876 C 562.5490065376806 218.71794871794876 564.6153846153846 220.7843267956528 564.6153846153846 223.33333333333337 z "
                fill="black" stroke-linecap="square"
                stroke-linejoin="butt" stroke-width="0.625"
                stroke-miterlimit="10.0" stroke-dashoffset="0.0" stroke="black"/>
        </g>
        <g latexdraw:type="dot" id="id996185864" latexdraw:size="10.0"
            latexdraw:dotShape="*" latexdraw:position="528.3333333333334 228.33333333333337">
            <path
                d="M 532.948717948718 228.33333333333337 C 532.948717948718 230.88233987101395 530.882339871014 232.94871794871798 528.3333333333334 232.94871794871798 C 525.7843267956528 232.94871794871798 523.7179487179487 230.88233987101395 523.7179487179487 228.33333333333337 C 523.7179487179487 225.7843267956528 525.7843267956528 223.71794871794876 528.3333333333334 223.71794871794876 C 530.882339871014 223.71794871794876 532.948717948718 225.7843267956528 532.948717948718 228.33333333333337 z "
                fill="black" stroke-linecap="square"
                stroke-linejoin="butt" stroke-width="0.625"
                stroke-miterlimit="10.0" stroke-dashoffset="0.0" stroke="black"/>
        </g>
        <g latexdraw:type="dot" id="id236777547" latexdraw:size="10.0"
            latexdraw:dotShape="*" latexdraw:position="516.6666666666667 255.0">
            <path
                d="M 521.2820512820514 255.0 C 521.2820512820514 257.5490065376806 519.2156732043474 259.61538461538464 516.6666666666667 259.61538461538464 C 514.1176601289861 259.61538461538464 512.0512820512821 257.5490065376806 512.0512820512821 255.0 C 512.0512820512821 252.45099346231942 514.1176601289861 250.3846153846154 516.6666666666667 250.3846153846154 C 519.2156732043474 250.3846153846154 521.2820512820514 252.45099346231942 521.2820512820514 255.0 z "
                fill="black" stroke-linecap="square"
                stroke-linejoin="butt" stroke-width="0.625"
                stroke-miterlimit="10.0" stroke-dashoffset="0.0" stroke="black"/>
        </g>
        <g latexdraw:type="dot" id="id1845129910" latexdraw:size="10.0"
            latexdraw:dotShape="*" latexdraw:position="501.66666666666674 283.33333333333337">
            <path
                d="M 506.2820512820513 283.33333333333337 C 506.2820512820513 285.8823398710139 504.2156732043473 287.94871794871796 501.66666666666674 287.94871794871796 C 499.11766012898613 287.94871794871796 497.0512820512821 285.8823398710139 497.0512820512821 283.33333333333337 C 497.0512820512821 280.78432679565276 499.11766012898613 278.71794871794873 501.66666666666674 278.71794871794873 C 504.2156732043473 278.71794871794873 506.2820512820513 280.78432679565276 506.2820512820513 283.33333333333337 z "
                fill="black" stroke-linecap="square"
                stroke-linejoin="butt" stroke-width="0.625"
                stroke-miterlimit="10.0" stroke-dashoffset="0.0" stroke="black"/>
        </g>
        <g id="id154841180" latexdraw:type="grid"
            latexdraw:XLabelsSouth="true" latexdraw:YLabelsWest="true"
            latexdraw:gridUnit="1.9993495599061393"
            latexdraw:gridEnd="2.0 2.0" latexdraw:gridStart="0.0 0.0"
            latexdraw:origin="0.0 0.0" transform="translate(180.0 319.9349559906145)">
            <g stroke-width="0.7055555555555556" stroke="gray"
                stroke-linecap="round" latexdraw:type="subGrid"
                latexdraw:gridDots="0" latexdraw:subDiv="5.0">
                <line x1="0.0" x2="0.0" y1="0.0" y2="-199.93495599061393"/>
                <line x1="19.993495599061394" x2="19.993495599061394"
                    y1="0.0" y2="-199.93495599061393"/>
                <line x1="39.98699119812279" x2="39.98699119812279"
                    y1="0.0" y2="-199.93495599061393"/>
                <line x1="59.980486797184184" x2="59.980486797184184"
                    y1="0.0" y2="-199.93495599061393"/>
                <line x1="79.97398239624557" x2="79.97398239624557"
                    y1="0.0" y2="-199.93495599061393"/>
                <line x1="99.96747799530696" x2="99.96747799530696"
                    y1="0.0" y2="-199.93495599061393"/>
                <line x1="99.96747799530696" x2="99.96747799530696"
                    y1="0.0" y2="-199.93495599061393"/>
                <line x1="119.96097359436835" x2="119.96097359436835"
                    y1="0.0" y2="-199.93495599061393"/>
                <line x1="139.95446919342976" x2="139.95446919342976"
                    y1="0.0" y2="-199.93495599061393"/>
                <line x1="159.94796479249115" x2="159.94796479249115"
                    y1="0.0" y2="-199.93495599061393"/>
                <line x1="179.94146039155254" x2="179.94146039155254"
                    y1="0.0" y2="-199.93495599061393"/>
                <line x1="199.93495599061393" x2="199.93495599061393"
                    y1="0.0" y2="-199.93495599061393"/>
                <line x1="0.0" x2="199.93495599061396" y1="-0.0" y2="-0.0"/>
                <line x1="0.0" x2="199.93495599061396"
                    y1="-19.993495599061394" y2="-19.993495599061394"/>
                <line x1="0.0" x2="199.93495599061396"
                    y1="-39.98699119812279" y2="-39.98699119812279"/>
                <line x1="0.0" x2="199.93495599061396"
                    y1="-59.980486797184184" y2="-59.980486797184184"/>
                <line x1="0.0" x2="199.93495599061396"
                    y1="-79.97398239624557" y2="-79.97398239624557"/>
                <line x1="0.0" x2="199.93495599061396"
                    y1="-99.96747799530696" y2="-99.96747799530696"/>
                <line x1="0.0" x2="199.93495599061396"
                    y1="-99.96747799530696" y2="-99.96747799530696"/>
                <line x1="0.0" x2="199.93495599061396"
                    y1="-119.96097359436835" y2="-119.96097359436835"/>
                <line x1="0.0" x2="199.93495599061396"
                    y1="-139.95446919342976" y2="-139.95446919342976"/>
                <line x1="0.0" x2="199.93495599061396"
                    y1="-159.94796479249115" y2="-159.94796479249115"/>
                <line x1="0.0" x2="199.93495599061396"
                    y1="-179.94146039155254" y2="-179.94146039155254"/>
                <line x1="0.0" x2="199.93495599061396"
                    y1="-199.93495599061393" y2="-199.93495599061393"/>
            </g>
            <g stroke-width="1.4111111111111112" stroke="black"
                stroke-linecap="square" latexdraw:type="grid">
                <line x1="0.0" x2="0.0" y1="0.0" y2="-199.93495599061393"/>
                <line x1="99.96747799530696" x2="99.96747799530696"
                    y1="0.0" y2="-199.93495599061393"/>
                <line x1="199.93495599061393" x2="199.93495599061393"
                    y1="0.0" y2="-199.93495599061393"/>
                <line x1="0.0" x2="199.93495599061396" y1="-0.0" y2="-0.0"/>
                <line x1="0.0" x2="199.93495599061396"
                    y1="-99.96747799530696" y2="-99.96747799530696"/>
                <line x1="0.0" x2="199.93495599061396"
                    y1="-199.93495599061393" y2="-199.93495599061393"/>
            </g>
        </g>
        <g latexdraw:type="dot" id="id242616598" latexdraw:size="10.0"
            latexdraw:dotShape="*" latexdraw:position="221.66666666666674 283.33333333333337">
            <path
                d="M 226.28205128205136 283.33333333333337 C 226.28205128205136 285.8823398710139 224.21567320434733 287.94871794871796 221.66666666666674 287.94871794871796 C 219.11766012898616 287.94871794871796 217.05128205128213 285.8823398710139 217.05128205128213 283.33333333333337 C 217.05128205128213 280.78432679565276 219.11766012898616 278.71794871794873 221.66666666666674 278.71794871794873 C 224.21567320434733 278.71794871794873 226.28205128205136 280.78432679565276 226.28205128205136 283.33333333333337 z "
                fill="black" stroke-linecap="square"
                stroke-linejoin="butt" stroke-width="0.625"
                stroke-miterlimit="10.0" stroke-dashoffset="0.0" stroke="black"/>
        </g>
        <g latexdraw:type="dot" id="id1585889940" latexdraw:size="10.0"
            latexdraw:dotShape="*" latexdraw:position="236.66666666666674 255.0">
            <path
                d="M 241.28205128205136 255.0 C 241.28205128205136 257.5490065376806 239.21567320434733 259.61538461538464 236.66666666666674 259.61538461538464 C 234.11766012898616 259.61538461538464 232.05128205128213 257.5490065376806 232.05128205128213 255.0 C 232.05128205128213 252.45099346231942 234.11766012898616 250.3846153846154 236.66666666666674 250.3846153846154 C 239.21567320434733 250.3846153846154 241.28205128205136 252.45099346231942 241.28205128205136 255.0 z "
                fill="black" stroke-linecap="square"
                stroke-linejoin="butt" stroke-width="0.625"
                stroke-miterlimit="10.0" stroke-dashoffset="0.0" stroke="black"/>
        </g>
        <g latexdraw:type="dot" id="id1832903272" latexdraw:size="10.0"
            latexdraw:dotShape="*" latexdraw:position="248.33333333333337 228.33333333333337">
            <path
                d="M 252.94871794871798 228.33333333333337 C 252.94871794871798 230.88233987101395 250.88233987101395 232.94871794871798 248.33333333333337 232.94871794871798 C 245.7843267956528 232.94871794871798 243.71794871794876 230.88233987101395 243.71794871794876 228.33333333333337 C 243.71794871794876 225.7843267956528 245.7843267956528 223.71794871794876 248.33333333333337 223.71794871794876 C 250.88233987101395 223.71794871794876 252.94871794871798 225.7843267956528 252.94871794871798 228.33333333333337 z "
                fill="black" stroke-linecap="square"
                stroke-linejoin="butt" stroke-width="0.625"
                stroke-miterlimit="10.0" stroke-dashoffset="0.0" stroke="black"/>
        </g>
        <g latexdraw:type="dot" id="id383954468" latexdraw:size="10.0"
            latexdraw:dotShape="*" latexdraw:position="280.0 223.33333333333337">
            <path
                d="M 284.6153846153846 223.33333333333337 C 284.6153846153846 225.88233987101395 282.54900653768055 227.94871794871798 280.0 227.94871794871798 C 277.4509934623194 227.94871794871798 275.38461538461536 225.88233987101395 275.38461538461536 223.33333333333337 C 275.38461538461536 220.7843267956528 277.4509934623194 218.71794871794876 280.0 218.71794871794876 C 282.54900653768055 218.71794871794876 284.6153846153846 220.7843267956528 284.6153846153846 223.33333333333337 z "
                fill="black" stroke-linecap="square"
                stroke-linejoin="butt" stroke-width="0.625"
                stroke-miterlimit="10.0" stroke-dashoffset="0.0" stroke="black"/>
        </g>
        <g latexdraw:type="dot" id="id741775532" latexdraw:size="10.0"
            latexdraw:dotShape="*" latexdraw:position="291.66666666666674 200.0">
            <path
                d="M 296.2820512820513 200.0 C 296.2820512820513 202.54900653768058 294.2156732043473 204.6153846153846 291.66666666666674 204.6153846153846 C 289.11766012898613 204.6153846153846 287.0512820512821 202.54900653768058 287.0512820512821 200.0 C 287.0512820512821 197.45099346231942 289.11766012898613 195.3846153846154 291.66666666666674 195.3846153846154 C 294.2156732043473 195.3846153846154 296.2820512820513 197.45099346231942 296.2820512820513 200.0 z "
                fill="black" stroke-linecap="square"
                stroke-linejoin="butt" stroke-width="0.625"
                stroke-miterlimit="10.0" stroke-dashoffset="0.0" stroke="black"/>
        </g>
        <g latexdraw:type="dot" id="id327867339" latexdraw:size="10.0"
            latexdraw:dotShape="*" latexdraw:position="265.0 243.33333333333337">
            <path
                d="M 269.6153846153846 243.33333333333337 C 269.6153846153846 245.88233987101395 267.54900653768055 247.94871794871798 265.0 247.94871794871798 C 262.4509934623194 247.94871794871798 260.38461538461536 245.88233987101395 260.38461538461536 243.33333333333337 C 260.38461538461536 240.7843267956528 262.4509934623194 238.71794871794876 265.0 238.71794871794876 C 267.54900653768055 238.71794871794876 269.6153846153846 240.7843267956528 269.6153846153846 243.33333333333337 z "
                fill="black" stroke-linecap="square"
                stroke-linejoin="butt" stroke-width="0.625"
                stroke-miterlimit="10.0" stroke-dashoffset="0.0" stroke="black"/>
        </g>
        <g latexdraw:type="dot" id="id1973089118" latexdraw:size="10.0"
            latexdraw:dotShape="*" latexdraw:position="248.33333333333337 273.33333333333337">
            <path
                d="M 252.94871794871798 273.33333333333337 C 252.94871794871798 275.8823398710139 250.88233987101395 277.94871794871796 248.33333333333337 277.94871794871796 C 245.7843267956528 277.94871794871796 243.71794871794876 275.8823398710139 243.71794871794876 273.33333333333337 C 243.71794871794876 270.78432679565276 245.7843267956528 268.71794871794873 248.33333333333337 268.71794871794873 C 250.88233987101395 268.71794871794873 252.94871794871798 270.78432679565276 252.94871794871798 273.33333333333337 z "
                fill="black" stroke-linecap="square"
                stroke-linejoin="butt" stroke-width="0.625"
                stroke-miterlimit="10.0" stroke-dashoffset="0.0" stroke="black"/>
        </g>
        <g latexdraw:type="dot" id="id1995723247" latexdraw:size="10.0"
            latexdraw:dotShape="*" latexdraw:position="318.33333333333337 200.0">
            <path
                d="M 322.94871794871796 200.0 C 322.94871794871796 202.54900653768058 320.8823398710139 204.6153846153846 318.33333333333337 204.6153846153846 C 315.78432679565276 204.6153846153846 313.71794871794873 202.54900653768058 313.71794871794873 200.0 C 313.71794871794873 197.45099346231942 315.78432679565276 195.3846153846154 318.33333333333337 195.3846153846154 C 320.8823398710139 195.3846153846154 322.94871794871796 197.45099346231942 322.94871794871796 200.0 z "
                fill="black" stroke-linecap="square"
                stroke-linejoin="butt" stroke-width="0.625"
                stroke-miterlimit="10.0" stroke-dashoffset="0.0" stroke="black"/>
        </g>
        <g latexdraw:type="dot" id="id921224980" latexdraw:size="10.0"
            latexdraw:dotShape="*" latexdraw:position="286.66666666666674 176.66666666666669">
            <path
                d="M 291.2820512820513 176.66666666666669 C 291.2820512820513 179.21567320434727 289.2156732043473 181.2820512820513 286.66666666666674 181.2820512820513 C 284.11766012898613 181.2820512820513 282.0512820512821 179.21567320434727 282.0512820512821 176.66666666666669 C 282.0512820512821 174.1176601289861 284.11766012898613 172.05128205128207 286.66666666666674 172.05128205128207 C 289.2156732043473 172.05128205128207 291.2820512820513 174.1176601289861 291.2820512820513 176.66666666666669 z "
                fill="black" stroke-linecap="square"
                stroke-linejoin="butt" stroke-width="0.625"
                stroke-miterlimit="10.0" stroke-dashoffset="0.0" stroke="black"/>
        </g>
        <g latexdraw:type="dot" id="id2109418926" latexdraw:size="10.0"
            latexdraw:dotShape="*" latexdraw:position="318.33333333333337 173.33333333333337">
            <path
                d="M 322.94871794871796 173.33333333333337 C 322.94871794871796 175.88233987101395 320.8823398710139 177.94871794871798 318.33333333333337 177.94871794871798 C 315.78432679565276 177.94871794871798 313.71794871794873 175.88233987101395 313.71794871794873 173.33333333333337 C 313.71794871794873 170.7843267956528 315.78432679565276 168.71794871794876 318.33333333333337 168.71794871794876 C 320.8823398710139 168.71794871794876 322.94871794871796 170.7843267956528 322.94871794871796 173.33333333333337 z "
                fill="black" stroke-linecap="square"
                stroke-linejoin="butt" stroke-width="0.625"
                stroke-miterlimit="10.0" stroke-dashoffset="0.0" stroke="black"/>
        </g>
        <g latexdraw:type="joinedLines" id="id1336223900">
            <polyline points="200.0,300.0 360.0,140.0 "
                stroke-width="2.0" stroke="black"
                latexdraw:rotationAngle="0.0" marker-end="url(#arrow1-1336223900)"/>
        </g>
        <g latexdraw:type="joinedLines" id="id1637604950">
            <polyline
                points="300.83333333333326,237.4999999999999 250.83333333333326,187.4999999999999 "
                stroke-width="2.0" stroke="black"
                latexdraw:rotationAngle="0.0" marker-end="url(#arrow1-1637604950)"/>
        </g>
        <g latexdraw:type="dot" id="id348835863" latexdraw:size="10.0"
            latexdraw:dotShape="*" latexdraw:position="299.16666666666686 250.00000000000034">
            <path
                d="M 303.78205128205144 250.00000000000034 C 303.78205128205144 252.54900653768092 301.7156732043474 254.61538461538495 299.16666666666686 254.61538461538495 C 296.61766012898624 254.61538461538495 294.5512820512822 252.54900653768092 294.5512820512822 250.00000000000034 C 294.5512820512822 247.45099346231976 296.61766012898624 245.38461538461573 299.16666666666686 245.38461538461573 C 301.7156732043474 245.38461538461573 303.78205128205144 247.45099346231976 303.78205128205144 250.00000000000034 z "
                fill="black" stroke-linecap="square"
                stroke-linejoin="butt" stroke-width="0.625"
                stroke-miterlimit="10.0" stroke-dashoffset="0.0" stroke="black"/>
        </g>
        <g latexdraw:type="dot" id="id605211227" latexdraw:size="10.0"
            latexdraw:dotShape="*" latexdraw:position="270.83333333333337 208.33333333333337">
            <path
                d="M 275.44871794871796 208.33333333333337 C 275.44871794871796 210.88233987101395 273.3823398710139 212.94871794871798 270.83333333333337 212.94871794871798 C 268.28432679565276 212.94871794871798 266.21794871794873 210.88233987101395 266.21794871794873 208.33333333333337 C 266.21794871794873 205.7843267956528 268.28432679565276 203.71794871794876 270.83333333333337 203.71794871794876 C 273.3823398710139 203.71794871794876 275.44871794871796 205.7843267956528 275.44871794871796 208.33333333333337 z "
                fill="black" stroke-linecap="square"
                stroke-linejoin="butt" stroke-width="0.625"
                stroke-miterlimit="10.0" stroke-dashoffset="0.0" stroke="black"/>
        </g>
        <g latexdraw:type="text" id="id1182471367" fill="black" latexdraw:position="bl">
            <text x="351.6666666666664" y="138.3333333333332">$\mathbf{w}_1$</text>
        </g>
        <g latexdraw:type="text" id="id427422088" fill="black" latexdraw:position="bl">
            <text x="236.66666666666652" y="185.0">$\mathbf{w}_2$</text>
        </g>
        <g latexdraw:type="text" id="id1777023764" fill="black" latexdraw:position="bl">
            <text x="566.6666666666667" y="133.33333333333334">$\mathbf{x}_i$</text>
        </g>
        <g latexdraw:type="dot" id="id1471023918" latexdraw:size="10.0"
            latexdraw:dotShape="*" latexdraw:position="617.9310344827586 162.0689655172414">
            <path
                d="M 622.5464190981432 162.0689655172414 C 622.5464190981432 164.61797205492198 620.4800410204392 166.684350132626 617.9310344827586 166.684350132626 C 615.382027945078 166.684350132626 613.315649867374 164.61797205492198 613.315649867374 162.0689655172414 C 613.315649867374 159.5199589795608 615.382027945078 157.45358090185678 617.9310344827586 157.45358090185678 C 620.4800410204392 157.45358090185678 622.5464190981432 159.5199589795608 622.5464190981432 162.0689655172414 z "
                fill="#ff0033" stroke-linecap="square"
                stroke-linejoin="butt" stroke-width="0.625"
                stroke-miterlimit="10.0" stroke-dashoffset="0.0" stroke="#ff0033"/>
        </g>
        <g latexdraw:type="joinedLines" id="id808769885">
            <polyline
                points="594.8457350272236,136.91470054446512 618.294010889292,161.37931034482742 "
                stroke-width="2.0" stroke="black"
                stroke-dasharray="8.819444444444445, 5.291666666666667" latexdraw:rotationAngle="0.0"/>
        </g>
        <g latexdraw:type="text" id="id1286473932" fill="black" latexdraw:position="bl">
            <text x="620.0000000000002" y="184.00000000000009">$\mathbf{x}_{i,1}' = \mathbf{w}_1^T \mathbf{x}_i$</text>
        </g>
        <g latexdraw:type="joinedLines" id="id1522982453">
            <polyline
                points="768.0964442143377,308.41741159235755 907.1035557856624,135.58258840764248 "
                stroke-width="2.0" stroke="black"
                stroke-dasharray="8.819444444444445, 5.291666666666667"
                latexdraw:rotationAngle="0.0" marker-end="url(#arrow1-1522982453)"/>
        </g>
        <g latexdraw:type="text" id="id1166274698" fill="black" latexdraw:position="bl">
            <text x="891.9999999999997" y="110.4">\begin{tabular}{c}
new\\
$\mathbf{w}_1$
\end{tabular} </text>
        </g>
        <g latexdraw:type="arc" id="id835933770" transform="rotate(218.01900799112659) translate(-1694.385042822615 366.93795622738287)">
            <path
                d="M 942.0000000000009 108.39999999999986 A 31.600000000000023 31.600000000000023 0.0 0 0 904.9127175857259 77.28007500481407 "
                latexdraw:borderPos="outer" stroke-width="2.0"
                stroke="black" fill="none"
                stroke-dasharray="8.819444444444445, 5.291666666666667"
                latexdraw:rotationAngle="3.805149521376987" marker-end="url(#arrow1-835933770)"/>
        </g>
        <g latexdraw:type="text" id="id1455311937" fill="black" latexdraw:position="bl">
            <text x="614.7368421052635" y="148.42105263157927">$\mathbf{e}_1$</text>
        </g>
    </g>
    <defs>
        <marker overflow="visible" orient="auto" id="arrow1-156523415">
            <path
                d="M 0.0 0.0 L -4.652083333333334 1.6614583333333335 L -4.652083333333334 0.0 L -4.652083333333334 -1.6614583333333335 z "
                latexdraw:arrSizeNum="2.0" fill="black"/>
        </marker>
        <marker overflow="visible" orient="auto" id="arrow1-2001184858">
            <path
                d="M 0.0 0.0 L -4.652083333333334 1.6614583333333335 L -4.652083333333334 0.0 L -4.652083333333334 -1.6614583333333335 z "
                latexdraw:arrSizeNum="2.0" fill="black"/>
        </marker>
        <marker overflow="visible" orient="auto" id="arrow1-1612121215">
            <path
                d="M 0.0 0.0 L -4.652083333333334 1.6614583333333335 L -4.652083333333334 0.0 L -4.652083333333334 -1.6614583333333335 z "
                latexdraw:arrSizeNum="2.0" fill="black"/>
        </marker>
        <marker overflow="visible" orient="auto" id="arrow1-1279708336">
            <path
                d="M 0.0 0.0 L -4.652083333333334 1.6614583333333335 L -4.652083333333334 0.0 L -4.652083333333334 -1.6614583333333335 z "
                latexdraw:arrSizeNum="2.0" fill="black"/>
        </marker>
        <marker overflow="visible" orient="auto" id="arrow1-1336223900">
            <path
                d="M 0.0 0.0 L -4.652083333333334 1.6614583333333335 L -4.652083333333334 0.0 L -4.652083333333334 -1.6614583333333335 z "
                latexdraw:arrSizeNum="2.0" fill="black"/>
        </marker>
        <marker overflow="visible" orient="auto" id="arrow1-1637604950">
            <path
                d="M 0.0 0.0 L -4.652083333333334 1.6614583333333335 L -4.652083333333334 0.0 L -4.652083333333334 -1.6614583333333335 z "
                latexdraw:arrSizeNum="2.0" fill="black"/>
        </marker>
        <marker overflow="visible" orient="auto" id="arrow1-1522982453">
            <path
                d="M 0.0 0.0 L -4.652083333333334 1.6614583333333335 L -4.652083333333334 0.0 L -4.652083333333334 -1.6614583333333335 z "
                latexdraw:arrSizeNum="2.0" fill="black"/>
        </marker>
        <marker overflow="visible" orient="auto" id="arrow1-835933770">
            <path
                d="M 0.0 0.0 L -4.652083333333334 1.6614583333333335 L -4.652083333333334 0.0 L -4.652083333333334 -1.6614583333333335 z "
                latexdraw:arrSizeNum="2.0" fill="black"/>
        </marker>
    </defs>
    <metadata>
        <latexdraw:metadata>
            <latexdraw:latexIncludes/>
            <latexdraw:displayXScale>true</latexdraw:displayXScale>
            <latexdraw:displayYScale>true</latexdraw:displayYScale>
            <latexdraw:unit>CM</latexdraw:unit>
            <latexdraw:zoom>0.95</latexdraw:zoom>
            <latexdraw:magneticGridStyle>CUSTOMISED</latexdraw:magneticGridStyle>
            <latexdraw:gridGap>20</latexdraw:gridGap>
            <latexdraw:magneticGrid>false</latexdraw:magneticGrid>
            <latexdraw:version>3.3.8</latexdraw:version>
            <latexdraw:size>
                <latexdraw:width>1315</latexdraw:width>
                <latexdraw:height>784</latexdraw:height>
            </latexdraw:size>
            <latexdraw:position>
                <latexdraw:x>59.0</latexdraw:x>
                <latexdraw:y>0.0</latexdraw:y>
            </latexdraw:position>
        </latexdraw:metadata>
    </metadata>
</svg>
